<svg xmlns="http://www.w3.org/2000/svg" width="24" height="24" fill="currentColor" viewBox="0 0 24 24">
  <path fill="#fff" fill-rule="evenodd" d="M23 12c0 6.075-4.925 11-11 11S1 18.075 1 12 5.925 1 12 1s11 4.925 11 11Zm-8.117 2.5c.076-.794.117-1.633.117-2.5s-.04-1.706-.117-2.5H9.117A26.193 26.193 0 0 0 9 12c0 .867.04 1.706.117 2.5h5.766Zm-.284 2H9.4c.521 2.69 1.49 4.5 2.6 4.5s2.08-1.81 2.599-4.5Zm-7.49-2A28.344 28.344 0 0 1 7 12c0-.856.037-1.694.109-2.5H3.352A9.004 9.004 0 0 0 3 12c0 .867.123 1.706.352 2.5h3.757Zm-2.905 2h3.164c.158.908.364 1.749.613 2.496.15.447.322.886.523 1.3a9.035 9.035 0 0 1-4.3-3.796Zm12.428 0h3.164a9.035 9.035 0 0 1-4.3 3.796c.201-.414.374-.853.523-1.3.249-.747.455-1.588.613-2.496Zm4.016-2h-3.757c.072-.806.109-1.644.109-2.5 0-.856-.037-1.694-.109-2.5h3.757c.23.794.352 1.633.352 2.5s-.123 1.706-.352 2.5Zm-4.016-7h3.164a9.035 9.035 0 0 0-4.3-3.796c.201.414.374.853.523 1.3.249.747.455 1.588.613 2.496ZM12 3c-1.11 0-2.08 1.81-2.599 4.5H14.6C14.079 4.81 13.11 3 12 3ZM7.981 5.004A17.366 17.366 0 0 0 7.368 7.5H4.204a9.035 9.035 0 0 1 4.3-3.796c-.201.414-.374.853-.523 1.3Z" clip-rule="evenodd"/>
</svg>
