<svg xmlns="http://www.w3.org/2000/svg" width="24" height="24" fill="currentColor" viewBox="0 0 24 24">
  <g clip-path="url(#a)">
    <path fill="#fff" fill-rule="evenodd" d="M12 7.5a4.5 4.5 0 1 0 0 9 4.5 4.5 0 0 0 0-9ZM9.5 12a2.5 2.5 0 1 1 5 0 2.5 2.5 0 0 1-5 0Z" clip-rule="evenodd"/>
    <path fill="#fff" fill-rule="evenodd" d="M14.193.5H9.807L8.624 3.655a8.996 8.996 0 0 0-.138.057L5.42 2.318 2.318 5.419l1.394 3.067-.057.138L.5 9.807v4.386l3.155 1.183.057.138-1.394 3.067 3.101 3.101 3.067-1.394.138.057L9.807 23.5h4.386l1.183-3.155.138-.057 3.067 1.394 3.101-3.101-1.394-3.067.057-.138 3.155-1.183V9.807l-3.155-1.183a9.297 9.297 0 0 0-.057-.137l1.394-3.068-3.101-3.101-3.067 1.394a8.814 8.814 0 0 0-.138-.057L14.193.5Zm-4.022 4.724L11.193 2.5h1.614l1.022 2.724.446.154c.274.094.54.205.798.33l.424.208 2.65-1.204 1.141 1.141-1.204 2.65.207.424c.126.258.237.524.331.798l.154.446 2.724 1.022v1.614l-2.724 1.022-.154.446c-.094.274-.205.54-.33.798l-.208.424 1.204 2.65-1.141 1.141-2.65-1.204-.424.207a6.934 6.934 0 0 1-.798.331l-.446.154-1.022 2.724h-1.614l-1.022-2.724-.446-.154a6.936 6.936 0 0 1-.798-.33l-.424-.208-2.65 1.204-1.141-1.141 1.204-2.65-.207-.424a6.948 6.948 0 0 1-.331-.798l-.154-.446L2.5 12.807v-1.614l2.724-1.022.154-.446a6.95 6.95 0 0 1 .33-.798l.208-.424-1.204-2.65 1.141-1.141 2.65 1.204.424-.207a6.95 6.95 0 0 1 .798-.331l.446-.154Z" clip-rule="evenodd"/>
  </g>
  <defs>
    <clipPath id="a">
      <path fill="#fff" d="M0 0h24v24H0z"/>
    </clipPath>
  </defs>
</svg>
