<svg width="43" height="48" viewBox="0 0 43 48" fill="none" xmlns="http://www.w3.org/2000/svg">
<path d="M11.2 13.3911L0 17.9911L12.5 47.9911L42.5 35.4911L37.7 23.8911C37.6 23.7911 37.6 23.7911 37.5 23.7911C37.4 23.7911 37.4 23.6911 37.3 23.6911C37.2 23.5911 37.1 23.5911 36.9 23.5911C36.9 23.5911 36.9 23.5911 36.8 23.5911H36.7H36.6H36.5C36.4 23.5911 36.4 23.5911 36.3 23.5911H36.2C36.1 23.5911 36 23.5911 35.9 23.6911C35.4 23.8911 35.1 24.2911 35 24.6911C34.6 26.1911 33.5 27.5911 31.9 28.1911C29.2 29.2911 26.1 27.9911 24.9 25.2911C23.8 22.5911 25.1 19.4911 27.8 18.2911C29.4 17.5911 31.1 17.7911 32.5 18.5911C32.9 18.7911 33.4 18.8911 33.9 18.6911C34 18.6911 34.1 18.5911 34.1 18.5911C34.1 18.5911 34.2 18.5911 34.2 18.4911L34.3 18.3911L34.4 18.2911L34.5 18.1911L34.6 18.0911C34.6 18.0911 34.6 18.0911 34.6 17.9911C34.7 17.8911 34.7 17.7911 34.8 17.6911C34.8 17.5911 34.8 17.5911 34.8 17.4911C34.8 17.3911 34.8 17.3911 34.8 17.2911L30 5.59111L18.8 10.2911C18 10.4911 17.2 10.1911 16.9 9.39111C16.7 8.89111 16.8 8.39112 17 7.99112C17.8 6.59111 18 4.89111 17.3 3.29111C16.2 0.591115 13.1 -0.708885 10.3 0.391115C7.6 1.49111 6.3 4.59111 7.4 7.39112C8 8.99112 9.4 9.99111 10.9 10.4911C11.3 10.5911 11.7 10.8911 11.9 11.3911C12.3 12.0911 11.9 12.9911 11.2 13.3911Z" fill="#DAE2E8"/>
</svg>
