<svg width="339" height="456" viewBox="0 0 339 456" fill="none" xmlns="http://www.w3.org/2000/svg">
<path d="M301.84 60.2843L303.798 55.9021C287.618 59.1217 273.401 65.2622 261.452 74.3108C244.6 87.064 236.263 102.516 232.223 113.227C230.431 118.002 229.097 122.898 228.314 127.614C222.632 127.373 216.262 128.336 209.5 130.465C196.999 134.392 188.166 144.259 181.654 161.506C175.9 176.771 172.569 195.887 168.701 218.02C165.12 238.556 161.06 261.837 154.28 284.606C146.565 310.616 136.447 332.106 123.389 350.28C112.598 365.295 99.6733 377.1 84.9936 385.375C72.2108 392.561 57.6862 397.287 41.772 399.433C27.7837 401.334 13.7256 401.287 0.0148799 399.842L10.3963 404.482C20.8954 405.13 31.6268 404.733 42.3194 403.275C58.7186 401.047 73.7243 396.153 86.9328 388.732C102.115 380.192 115.442 368.013 126.57 352.531C139.874 333.999 150.175 312.145 158.02 285.702C164.851 262.723 168.941 239.328 172.526 218.687C176.35 196.747 179.671 177.797 185.293 162.877C191.335 146.825 199.407 137.704 210.669 134.159C217.681 131.95 223.342 131.33 227.763 131.476C227.538 133.653 227.424 135.773 227.436 137.8C227.504 145.153 229.243 150.869 232.327 153.864C234.799 156.268 238.044 156.846 241.446 155.45C244.993 154.013 247.604 151.71 248.999 148.779C250.339 145.972 250.456 142.746 249.342 139.694C247.533 134.756 242.837 130.827 236.426 128.919C235.072 128.506 233.663 128.217 232.187 127.983C232.95 123.598 234.187 119.064 235.862 114.597C239.731 104.364 247.68 89.5899 263.79 77.3988C274.618 69.2328 287.362 63.5196 301.84 60.2843ZM235.329 132.665C240.529 134.223 244.313 137.276 245.686 141.04C247.319 145.559 245.076 149.814 239.96 151.891C238.006 152.678 236.389 152.423 235.048 151.122C232.758 148.885 231.398 144.041 231.337 137.82C231.312 135.914 231.415 133.917 231.654 131.852C233.059 132.055 234.276 132.343 235.329 132.665Z" fill="#DAE2E8"/>
<path d="M338.749 49.746L284.889 38.2515L292.637 52.6583L325.054 51.6693L295.498 57.9774L295.505 57.9912L295.495 57.9752L286.751 67.8917L299.841 66.0534L305.346 76.2882L338.749 49.746Z" fill="#DAE2E8"/>
</svg>
