<svg width="338" height="316" viewBox="0 0 338 316" fill="none" xmlns="http://www.w3.org/2000/svg">
<path d="M118.328 85.8281C113.433 74.3205 106.01 64.035 96.8663 56.119C89.0837 49.353 79.748 44.0821 69.6906 40.7036L71.7691 37.1773C82.14 40.81 91.5141 46.1731 99.4929 53.0779C109.092 61.4012 116.874 72.177 122.017 84.2476C127.159 96.3182 129.502 109.404 128.829 122.103C128.644 125.68 128.213 129.203 127.561 132.667C138.785 147 145.871 163.832 151.819 180.04C153.273 183.98 154.694 188.016 156.063 191.905C161.102 206.117 166.305 220.796 173.615 234.144C181.861 249.203 193.283 263.004 206.648 274.058C220.385 285.423 235.66 293.708 252.06 298.669C258.793 300.691 265.7 302.142 272.612 302.995L270.411 306.728C263.783 305.787 257.301 304.401 250.912 302.466C240.919 299.45 231.314 295.225 222.234 289.873C215.94 286.164 209.882 281.897 204.1 277.122C190.363 265.757 178.603 251.547 170.11 236.042C162.658 222.424 157.385 207.588 152.31 193.24C150.942 189.35 149.511 185.332 148.063 181.419C142.58 166.505 136.156 151.106 126.402 137.778C123.04 150.677 116.468 162.101 107.401 170.408C100.683 176.577 92.4214 181.002 83.5162 183.217C74.283 185.516 64.9856 185.251 56.6169 182.428C48.0459 179.554 40.4071 173.684 35.0547 165.94C29.5739 157.981 27.1067 148.762 28.0732 139.968C29.1388 130.259 34.3376 121.085 42.7102 114.153C50.6269 107.601 60.8841 103.564 70.8776 103.08C80.5563 102.62 90.3548 104.826 99.9471 109.622C108.632 113.953 116.843 120.346 123.699 128.095C123.847 128.276 124.006 128.439 124.155 128.619C124.477 126.422 124.685 124.18 124.805 121.933C125.465 109.806 123.223 97.3357 118.328 85.8281ZM120.733 130.728C114.209 123.36 106.405 117.299 98.1701 113.187C89.1828 108.701 80.0633 106.64 71.076 107.068C61.9449 107.504 52.5341 111.205 45.2809 117.221C37.7147 123.493 33.0189 131.735 32.0617 140.395C30.2942 156.366 41.6597 173.171 57.9164 178.651C65.5504 181.226 74.0807 181.456 82.5758 179.348C90.8351 177.286 98.4831 173.195 104.722 167.485C113.922 159.07 120.394 147.147 123.273 133.732C122.45 132.69 121.597 131.701 120.733 130.728Z" fill="#DAE2E8"/>
<path d="M33.9993 26.6051L85.1314 20.3438L76.7223 33.1271L46.6004 29.5282L73.6177 37.8468L73.6097 37.859L73.6202 37.8449L80.9482 47.8066L68.9036 45.0127L62.9298 54.0941L33.9993 26.6051Z" fill="#DAE2E8"/>
</svg>
