<svg width="194" height="123" viewBox="0 0 194 123" fill="none" xmlns="http://www.w3.org/2000/svg">
<g opacity="0.1">
<path d="M174.204 14.2999C168.931 14.2999 166.339 11.0999 163.836 7.8999C161.512 4.8999 159.278 2.0999 154.898 2.0999C150.518 2.0999 148.284 4.8999 145.96 7.8999C143.457 10.9999 140.865 14.2999 135.592 14.2999C130.318 14.2999 127.726 11.0999 125.223 7.8999C122.899 4.8999 120.665 2.0999 116.285 2.0999C111.906 2.0999 109.671 4.8999 107.347 7.8999C104.844 10.9999 102.252 14.2999 96.9788 14.2999C91.7053 14.2999 89.1133 10.9999 86.7 7.8999C84.3761 4.8999 82.1415 2.0999 77.7618 2.0999C73.3821 2.0999 71.1476 4.8999 68.8237 7.8999C66.321 10.9999 63.729 14.2999 58.4555 14.2999C53.182 14.2999 50.5899 11.0999 48.1766 7.8999C45.8527 4.8999 43.6182 2.0999 39.2385 2.0999C34.8588 2.0999 32.6243 4.8999 30.3003 7.8999C27.7977 10.9999 25.2056 14.2999 20.0215 14.2999C14.748 14.2999 12.1559 11.0999 9.65325 7.8999C7.32934 4.8999 5.0948 2.0999 0.715118 2.0999V0.899902C5.98862 0.899902 8.58068 4.0999 11.0834 7.2999C13.4073 10.2999 15.6418 13.0999 20.0215 13.0999C24.4012 13.0999 26.6357 10.2999 28.9596 7.2999C31.4623 4.1999 34.0544 0.899902 39.2385 0.899902C44.512 0.899902 47.104 4.0999 49.5173 7.2999C51.8413 10.2999 54.0758 13.0999 58.4555 13.0999C62.8352 13.0999 65.0697 10.2999 67.3936 7.2999C69.8963 4.1999 72.4883 0.899902 77.7618 0.899902C83.0353 0.899902 85.6274 4.0999 88.1301 7.2999C90.454 10.2999 92.6885 13.0999 97.0682 13.0999C101.448 13.0999 103.682 10.2999 106.006 7.2999C108.509 4.1999 111.101 0.899902 116.375 0.899902C121.648 0.899902 124.24 4.0999 126.743 7.2999C129.067 10.2999 131.301 13.0999 135.681 13.0999C140.061 13.0999 142.295 10.2999 144.619 7.2999C147.122 4.1999 149.714 0.899902 154.987 0.899902C160.261 0.899902 162.853 4.0999 165.356 7.2999C167.679 10.2999 169.914 13.0999 174.294 13.0999C178.673 13.0999 180.908 10.2999 183.232 7.2999C185.735 4.1999 188.327 0.899902 193.6 0.899902V2.0999C189.22 2.0999 186.986 4.8999 184.662 7.8999C181.98 10.9999 179.478 14.2999 174.204 14.2999Z" fill="#295271"/>
<path d="M174.204 25.1C168.931 25.1 166.339 21.9 163.836 18.7C161.512 15.7 159.278 12.9 154.898 12.9C150.518 12.9 148.284 15.7 145.96 18.7C143.457 21.8 140.865 25.1 135.592 25.1C130.318 25.1 127.726 21.9 125.223 18.7C122.899 15.7 120.665 12.9 116.285 12.9C111.905 12.9 109.671 15.7 107.347 18.7C104.844 21.8 102.252 25.1 96.9788 25.1C91.7053 25.1 89.1132 21.9 86.6105 18.7C84.2866 15.7 82.0521 12.9 77.6724 12.9C73.2927 12.9 71.0582 15.7 68.7343 18.7C66.2316 21.8 63.6395 25.1 58.366 25.1C53.0925 25.1 50.5005 21.9 48.0872 18.7C45.7633 15.7 43.5287 12.9 39.149 12.9C34.7693 12.9 32.5348 15.7 30.2109 18.7C27.7082 21.8 25.1162 25.1 19.932 25.1C14.6585 25.1 12.0665 21.9 9.56381 18.7C7.23989 15.7 5.00536 12.9 0.625671 12.9V11.7C5.89917 11.7 8.49123 14.9 10.9939 18.1C13.3178 21.1 15.5524 23.9 19.932 23.9C24.3117 23.9 26.5463 21.1 28.8702 18.1C31.3729 15 33.9649 11.7 39.149 11.7C44.4225 11.7 47.0146 14.9 49.4279 18.1C51.7518 21.1 53.9863 23.9 58.366 23.9C62.7457 23.9 64.9802 21.1 67.3042 18.1C69.8068 15 72.3989 11.7 77.6724 11.7C82.9459 11.7 85.538 14.9 88.0406 18.1C90.3645 21.1 92.5991 23.9 96.9788 23.9C101.358 23.9 103.593 21.1 105.917 18.1C108.42 15 111.012 11.7 116.285 11.7C121.559 11.7 124.151 14.9 126.653 18.1C128.977 21.1 131.212 23.9 135.592 23.9C139.971 23.9 142.206 21.1 144.53 18.1C147.032 15 149.624 11.7 154.898 11.7C160.171 11.7 162.763 14.9 165.266 18.1C167.59 21.1 169.825 23.9 174.204 23.9C178.584 23.9 180.818 21.1 183.142 18.1C185.645 15 188.237 11.7 193.511 11.7V12.9C189.131 12.9 186.896 15.7 184.572 18.7C181.98 21.8 179.478 25.1 174.204 25.1Z" fill="#295271"/>
<path d="M174.204 35.9C168.931 35.9 166.339 32.7 163.836 29.5C161.512 26.5 159.278 23.7 154.898 23.7C150.518 23.7 148.284 26.5 145.96 29.5C143.457 32.6 140.865 35.9 135.592 35.9C130.318 35.9 127.726 32.7 125.223 29.5C122.899 26.5 120.665 23.7 116.285 23.7C111.905 23.7 109.671 26.5 107.347 29.5C104.844 32.6 102.252 35.9 96.9788 35.9C91.7053 35.9 89.1132 32.7 86.6105 29.5C84.2866 26.5 82.0521 23.7 77.6724 23.7C73.2927 23.7 71.0582 26.5 68.7343 29.5C66.2316 32.6 63.6395 35.9 58.366 35.9C53.0925 35.9 50.5005 32.7 48.0872 29.5C45.7633 26.5 43.5287 23.7 39.149 23.7C34.7693 23.7 32.5348 26.5 30.2109 29.5C27.7082 32.6 25.1162 35.9 19.932 35.9C14.6585 35.9 12.0665 32.7 9.56381 29.5C7.23989 26.5 5.00536 23.7 0.625671 23.7V22.5C5.89917 22.5 8.49123 25.7 10.9939 28.9C13.3178 31.9 15.5524 34.7 19.932 34.7C24.3117 34.7 26.5463 31.9 28.8702 28.9C31.3729 25.8 33.9649 22.5 39.149 22.5C44.4225 22.5 47.0146 25.7 49.4279 28.9C51.7518 31.9 53.9863 34.7 58.366 34.7C62.7457 34.7 64.9802 31.9 67.3042 28.9C69.8068 25.8 72.3989 22.5 77.6724 22.5C82.9459 22.5 85.538 25.7 88.0406 28.9C90.3645 31.9 92.5991 34.7 96.9788 34.7C101.358 34.7 103.593 31.9 105.917 28.9C108.42 25.8 111.012 22.5 116.285 22.5C121.559 22.5 124.151 25.7 126.653 28.9C128.977 31.9 131.212 34.7 135.592 34.7C139.971 34.7 142.206 31.9 144.53 28.9C147.032 25.8 149.624 22.5 154.898 22.5C160.171 22.5 162.763 25.7 165.266 28.9C167.59 31.9 169.825 34.7 174.204 34.7C178.584 34.7 180.818 31.9 183.142 28.9C185.645 25.8 188.237 22.5 193.511 22.5V23.7C189.131 23.7 186.896 26.5 184.572 29.5C181.98 32.6 179.478 35.9 174.204 35.9Z" fill="#295271"/>
<path d="M174.204 46.7001C168.931 46.7001 166.339 43.5 163.836 40.3C161.512 37.3 159.278 34.5 154.898 34.5C150.518 34.5 148.284 37.3 145.96 40.3C143.457 43.4 140.865 46.7001 135.592 46.7001C130.318 46.7001 127.726 43.5 125.223 40.3C122.899 37.3 120.665 34.5 116.285 34.5C111.905 34.5 109.671 37.3 107.347 40.3C104.844 43.4 102.252 46.7001 96.9788 46.7001C91.7053 46.7001 89.1132 43.5 86.6105 40.3C84.2866 37.3 82.0521 34.5 77.6724 34.5C73.2927 34.5 71.0582 37.3 68.7343 40.3C66.2316 43.4 63.6395 46.7001 58.366 46.7001C53.0925 46.7001 50.5005 43.5 48.0872 40.3C45.7633 37.3 43.5287 34.5 39.149 34.5C34.7693 34.5 32.5348 37.3 30.2109 40.3C27.7082 43.4 25.1162 46.7001 19.932 46.7001C14.6585 46.7001 12.0665 43.5 9.56381 40.3C7.23989 37.3 5.00536 34.5 0.625671 34.5V33.3C5.89917 33.3 8.49123 36.5001 10.9939 39.7001C13.3178 42.7001 15.5524 45.5 19.932 45.5C24.3117 45.5 26.5463 42.7001 28.8702 39.7001C31.3729 36.6001 33.9649 33.3 39.149 33.3C44.4225 33.3 47.0146 36.5001 49.4279 39.7001C51.7518 42.7001 53.9863 45.5 58.366 45.5C62.7457 45.5 64.9802 42.7001 67.3042 39.7001C69.8068 36.6001 72.3989 33.3 77.6724 33.3C82.9459 33.3 85.538 36.5001 88.0406 39.7001C90.3645 42.7001 92.5991 45.5 96.9788 45.5C101.358 45.5 103.593 42.7001 105.917 39.7001C108.42 36.6001 111.012 33.3 116.285 33.3C121.559 33.3 124.151 36.5001 126.653 39.7001C128.977 42.7001 131.212 45.5 135.592 45.5C139.971 45.5 142.206 42.7001 144.53 39.7001C147.032 36.6001 149.624 33.3 154.898 33.3C160.171 33.3 162.763 36.5001 165.266 39.7001C167.59 42.7001 169.825 45.5 174.204 45.5C178.584 45.5 180.818 42.7001 183.142 39.7001C185.645 36.6001 188.237 33.3 193.511 33.3V34.5C189.131 34.5 186.896 37.3 184.572 40.3C181.98 43.4 179.478 46.7001 174.204 46.7001Z" fill="#295271"/>
<path d="M174.204 57.4C168.931 57.4 166.339 54.2 163.836 51C161.512 48 159.278 45.2 154.898 45.2C150.518 45.2 148.284 48 145.96 51C143.457 54.1 140.865 57.4 135.592 57.4C130.318 57.4 127.726 54.2 125.223 51C122.899 48 120.665 45.2 116.285 45.2C111.905 45.2 109.671 48 107.347 51C104.844 54.1 102.252 57.4 96.9788 57.4C91.7053 57.4 89.1132 54.2 86.6105 51C84.2866 48 82.0521 45.2 77.6724 45.2C73.2927 45.2 71.0582 48 68.7343 51C66.2316 54.1 63.6395 57.4 58.366 57.4C53.0925 57.4 50.5005 54.2 48.0872 51C45.7633 48 43.5287 45.2 39.149 45.2C34.7693 45.2 32.5348 48 30.2109 51C27.7082 54.1 25.1162 57.4 19.932 57.4C14.6585 57.4 12.0665 54.2 9.56381 51C7.23989 48 5.00536 45.2 0.625671 45.2V44C5.89917 44 8.49123 47.2 10.9939 50.4C13.3178 53.4 15.5524 56.2 19.932 56.2C24.3117 56.2 26.5463 53.4 28.8702 50.4C31.2835 47.3 33.7862 44 39.0597 44C44.3332 44 46.9252 47.2 49.3385 50.4C51.6624 53.4 53.897 56.2 58.2766 56.2C62.6563 56.2 64.8909 53.4 67.2148 50.4C69.8068 47.3 72.3989 44 77.6724 44C82.9459 44 85.538 47.2 88.0406 50.4C90.3645 53.4 92.5991 56.2 96.9788 56.2C101.358 56.2 103.593 53.4 105.917 50.4C108.42 47.3 111.012 44 116.285 44C121.559 44 124.151 47.2 126.653 50.4C128.977 53.4 131.212 56.2 135.592 56.2C139.971 56.2 142.206 53.4 144.53 50.4C147.032 47.3 149.624 44 154.898 44C160.171 44 162.763 47.2 165.266 50.4C167.59 53.4 169.825 56.2 174.204 56.2C178.584 56.2 180.818 53.4 183.142 50.4C185.645 47.3 188.237 44 193.511 44V45.2C189.131 45.2 186.896 48 184.572 51C181.98 54.2 179.478 57.4 174.204 57.4Z" fill="#295271"/>
<path d="M174.204 68.1999C168.931 68.1999 166.339 64.9999 163.836 61.7999C161.512 58.7999 159.278 55.9999 154.898 55.9999C150.518 55.9999 148.284 58.7999 145.96 61.7999C143.457 64.8999 140.865 68.1999 135.592 68.1999C130.318 68.1999 127.726 64.9999 125.223 61.7999C122.899 58.7999 120.665 55.9999 116.285 55.9999C111.906 55.9999 109.671 58.7999 107.347 61.7999C104.844 64.8999 102.252 68.1999 96.9788 68.1999C91.7053 68.1999 89.1133 64.9999 86.7 61.8999C84.3761 58.8999 82.1415 56.0999 77.7618 56.0999C73.3821 56.0999 71.1476 58.8999 68.8237 61.8999C66.321 64.9999 63.729 68.2999 58.4555 68.2999C53.182 68.2999 50.5899 65.0999 48.1766 61.8999C45.8527 58.8999 43.6182 56.0999 39.2385 56.0999C34.8588 56.0999 32.6243 58.8999 30.3003 61.8999C27.7977 64.9999 25.2056 68.2999 20.0215 68.2999C14.748 68.2999 12.1559 65.0999 9.65325 61.8999C7.32934 58.8999 5.0948 56.0999 0.715118 56.0999V54.8999C5.98862 54.8999 8.58068 58.0999 11.0834 61.2999C13.4073 64.2999 15.6418 67.0999 20.0215 67.0999C24.4012 67.0999 26.6357 64.2999 28.9596 61.2999C31.4623 58.1999 34.0544 54.8999 39.2385 54.8999C44.512 54.8999 47.104 58.0999 49.5173 61.2999C51.8413 64.2999 54.0758 67.0999 58.4555 67.0999C62.8352 67.0999 65.0697 64.2999 67.3936 61.2999C69.8963 58.1999 72.4883 54.8999 77.7618 54.8999C83.0353 54.8999 85.6274 58.0999 88.1301 61.2999C90.454 64.2999 92.6885 67.0999 97.0682 67.0999C101.448 67.0999 103.682 64.2999 106.006 61.2999C108.509 58.1999 111.101 54.8999 116.375 54.8999C121.648 54.8999 124.24 58.0999 126.743 61.2999C129.067 64.2999 131.301 67.0999 135.681 67.0999C140.061 67.0999 142.295 64.2999 144.619 61.2999C147.122 58.1999 149.714 54.8999 154.987 54.8999C160.261 54.8999 162.853 58.0999 165.356 61.2999C167.679 64.2999 169.914 67.0999 174.294 67.0999C178.673 67.0999 180.908 64.2999 183.232 61.2999C185.735 58.1999 188.327 54.8999 193.6 54.8999V56.0999C189.22 56.0999 186.986 58.8999 184.662 61.8999C181.98 64.9999 179.478 68.1999 174.204 68.1999Z" fill="#295271"/>
<path d="M174.204 79.0001C168.931 79.0001 166.339 75.8001 163.836 72.6001C161.512 69.6001 159.278 66.8001 154.898 66.8001C150.518 66.8001 148.284 69.6001 145.96 72.6001C143.457 75.7001 140.865 79.0001 135.591 79.0001C130.318 79.0001 127.726 75.8001 125.223 72.6001C122.899 69.6001 120.665 66.8001 116.285 66.8001C111.905 66.8001 109.671 69.6001 107.347 72.6001C104.844 75.7001 102.252 79.0001 96.9788 79.0001C91.7053 79.0001 89.1132 75.8001 86.6105 72.6001C84.2866 69.6001 82.0521 66.8001 77.6724 66.8001C73.2927 66.8001 71.0582 69.6001 68.7343 72.6001C66.2316 75.7001 63.6395 79.0001 58.366 79.0001C53.0925 79.0001 50.5005 75.8001 48.0872 72.6001C45.7632 69.6001 43.5287 66.8001 39.149 66.8001C34.7693 66.8001 32.5348 69.6001 30.2109 72.6001C27.6188 75.8001 25.0268 79.0001 19.8427 79.0001C14.5692 79.0001 11.9771 75.8001 9.47442 72.6001C7.15051 69.6001 4.91597 66.8001 0.536285 66.8001V65.6001C5.80978 65.6001 8.40184 68.8001 10.9045 72.0001C13.2284 75.0001 15.463 77.8001 19.8427 77.8001C24.2223 77.8001 26.4569 75.0001 28.7808 72.0001C31.2835 68.9001 33.8755 65.6001 39.0596 65.6001C44.3331 65.6001 46.9252 68.8001 49.3385 72.0001C51.6624 75.0001 53.8969 77.8001 58.2766 77.8001C62.6563 77.8001 64.8909 75.0001 67.2148 72.0001C69.7174 68.9001 72.3095 65.6001 77.583 65.6001C82.8565 65.6001 85.4486 68.8001 87.9512 72.0001C90.2752 75.0001 92.5097 77.8001 96.8894 77.8001C101.269 77.8001 103.504 75.0001 105.828 72.0001C108.33 68.9001 110.922 65.6001 116.196 65.6001C121.469 65.6001 124.061 68.8001 126.564 72.0001C128.888 75.0001 131.122 77.8001 135.502 77.8001C139.882 77.8001 142.116 75.0001 144.44 72.0001C146.943 68.9001 149.535 65.6001 154.808 65.6001C160.082 65.6001 162.674 68.8001 165.177 72.0001C167.501 75.0001 169.735 77.8001 174.115 77.8001C178.495 77.8001 180.729 75.0001 183.053 72.0001C185.556 68.9001 188.148 65.6001 193.421 65.6001V66.8001C189.042 66.8001 186.807 69.6001 184.483 72.6001C181.98 75.8001 179.478 79.0001 174.204 79.0001Z" fill="#295271"/>
<path d="M174.204 89.7999C168.931 89.7999 166.339 86.5999 163.836 83.3999C161.512 80.3999 159.278 77.5999 154.898 77.5999C150.518 77.5999 148.284 80.3999 145.96 83.3999C143.457 86.4999 140.865 89.7999 135.592 89.7999C130.318 89.7999 127.726 86.5999 125.223 83.3999C122.899 80.3999 120.665 77.5999 116.285 77.5999C111.905 77.5999 109.671 80.3999 107.347 83.3999C104.844 86.4999 102.252 89.7999 96.9788 89.7999C91.7053 89.7999 89.1132 86.5999 86.6105 83.3999C84.2866 80.3999 82.0521 77.5999 77.6724 77.5999C73.2927 77.5999 71.0582 80.3999 68.7343 83.3999C66.2316 86.4999 63.6395 89.7999 58.366 89.7999C53.0925 89.7999 50.5005 86.5999 48.0872 83.3999C45.7633 80.3999 43.5287 77.5999 39.149 77.5999C34.7693 77.5999 32.5348 80.3999 30.2109 83.3999C27.7082 86.4999 25.1162 89.7999 19.932 89.7999C14.6585 89.7999 12.0665 86.5999 9.56381 83.3999C7.23989 80.3999 5.00536 77.5999 0.625671 77.5999V76.3999C5.89917 76.3999 8.49123 79.5999 10.9939 82.7999C13.3178 85.7999 15.5524 88.5999 19.932 88.5999C24.3117 88.5999 26.5463 85.7999 28.8702 82.7999C31.3729 79.6999 33.9649 76.3999 39.149 76.3999C44.4225 76.3999 47.0146 79.5999 49.4279 82.7999C51.7518 85.7999 53.9863 88.5999 58.366 88.5999C62.7457 88.5999 64.9802 85.7999 67.3042 82.7999C69.8068 79.6999 72.3989 76.3999 77.6724 76.3999C82.9459 76.3999 85.538 79.5999 88.0406 82.7999C90.3645 85.7999 92.5991 88.5999 96.9788 88.5999C101.358 88.5999 103.593 85.7999 105.917 82.7999C108.42 79.6999 111.012 76.3999 116.285 76.3999C121.559 76.3999 124.151 79.5999 126.653 82.7999C128.977 85.7999 131.212 88.5999 135.592 88.5999C139.971 88.5999 142.206 85.7999 144.53 82.7999C147.032 79.6999 149.624 76.3999 154.898 76.3999C160.171 76.3999 162.763 79.5999 165.266 82.7999C167.59 85.7999 169.825 88.5999 174.204 88.5999C178.584 88.5999 180.818 85.7999 183.142 82.7999C185.645 79.6999 188.237 76.3999 193.511 76.3999V77.5999C189.131 77.5999 186.896 80.3999 184.572 83.3999C181.98 86.5999 179.478 89.7999 174.204 89.7999Z" fill="#295271"/>
<path d="M174.204 100.6C168.931 100.6 166.339 97.4 163.836 94.2C161.512 91.2 159.278 88.4 154.898 88.4C150.518 88.4 148.284 91.2 145.96 94.2C143.457 97.3 140.865 100.6 135.592 100.6C130.318 100.6 127.726 97.4 125.223 94.2C122.899 91.2 120.665 88.4 116.285 88.4C111.905 88.4 109.671 91.2 107.347 94.2C104.844 97.3 102.252 100.6 96.9788 100.6C91.7053 100.6 89.1132 97.4 86.6105 94.2C84.2866 91.2 82.0521 88.4 77.6724 88.4C73.2927 88.4 71.0582 91.2 68.7343 94.2C66.2316 97.3 63.6395 100.6 58.366 100.6C53.0925 100.6 50.5005 97.4 48.0872 94.2C45.7633 91.2 43.5287 88.4 39.149 88.4C34.7693 88.4 32.5348 91.2 30.2109 94.2C27.7082 97.3 25.1162 100.6 19.932 100.6C14.6585 100.6 12.0665 97.4 9.56381 94.2C7.23989 91.2 5.00536 88.4 0.625671 88.4V87.2C5.89917 87.2 8.49123 90.4 10.9939 93.6C13.3178 96.6 15.5524 99.4 19.932 99.4C24.3117 99.4 26.5463 96.6 28.8702 93.6C31.3729 90.5 33.9649 87.2 39.149 87.2C44.4225 87.2 47.0146 90.4 49.4279 93.6C51.7518 96.6 53.9863 99.4 58.366 99.4C62.7457 99.4 64.9802 96.6 67.3042 93.6C69.8068 90.5 72.3989 87.2 77.6724 87.2C82.9459 87.2 85.538 90.4 88.0406 93.6C90.3645 96.6 92.5991 99.4 96.9788 99.4C101.358 99.4 103.593 96.6 105.917 93.6C108.42 90.5 111.012 87.2 116.285 87.2C121.559 87.2 124.151 90.4 126.653 93.6C128.977 96.6 131.212 99.4 135.592 99.4C139.971 99.4 142.206 96.6 144.53 93.6C147.032 90.5 149.624 87.2 154.898 87.2C160.171 87.2 162.763 90.4 165.266 93.6C167.59 96.6 169.825 99.4 174.204 99.4C178.584 99.4 180.818 96.6 183.142 93.6C185.645 90.5 188.237 87.2 193.511 87.2V88.4C189.131 88.4 186.896 91.2 184.572 94.2C181.98 97.4 179.478 100.6 174.204 100.6Z" fill="#295271"/>
<path d="M174.204 111.4C168.931 111.4 166.339 108.2 163.836 105C161.512 102 159.278 99.2 154.898 99.2C150.518 99.2 148.284 102 145.96 105C143.457 108.1 140.865 111.4 135.592 111.4C130.318 111.4 127.726 108.2 125.223 105C122.899 102 120.665 99.2 116.285 99.2C111.905 99.2 109.671 102 107.347 105C104.844 108.1 102.252 111.4 96.9788 111.4C91.7053 111.4 89.1132 108.2 86.6105 105C84.2866 102 82.0521 99.2 77.6724 99.2C73.2927 99.2 71.0582 102 68.7343 105C66.2316 108.1 63.6395 111.4 58.366 111.4C53.0925 111.4 50.5005 108.2 48.0872 105C45.7633 102 43.5287 99.2 39.149 99.2C34.7693 99.2 32.5348 102 30.2109 105C27.7082 108.1 25.1162 111.4 19.932 111.4C14.6585 111.4 12.0665 108.2 9.56381 105C7.23989 102 5.00536 99.2 0.625671 99.2V98C5.89917 98 8.49123 101.2 10.9939 104.4C13.3178 107.4 15.5524 110.2 19.932 110.2C24.3117 110.2 26.5463 107.4 28.8702 104.4C31.3729 101.3 33.9649 98 39.149 98C44.4225 98 47.0146 101.2 49.4279 104.4C51.7518 107.4 53.9863 110.2 58.366 110.2C62.7457 110.2 64.9802 107.4 67.3042 104.4C69.8068 101.3 72.3989 98 77.6724 98C82.9459 98 85.538 101.2 88.0406 104.4C90.3645 107.4 92.5991 110.2 96.9788 110.2C101.358 110.2 103.593 107.4 105.917 104.4C108.42 101.3 111.012 98 116.285 98C121.559 98 124.151 101.2 126.653 104.4C128.977 107.4 131.212 110.2 135.592 110.2C139.971 110.2 142.206 107.4 144.53 104.4C147.032 101.3 149.624 98 154.898 98C160.171 98 162.763 101.2 165.266 104.4C167.59 107.4 169.825 110.2 174.204 110.2C178.584 110.2 180.818 107.4 183.142 104.4C185.645 101.3 188.237 98 193.511 98V99.2C189.131 99.2 186.896 102 184.572 105C181.98 108.2 179.478 111.4 174.204 111.4Z" fill="#295271"/>
<path d="M174.204 122.2C168.931 122.2 166.339 119 163.836 115.8C161.512 112.8 159.278 110 154.898 110C150.518 110 148.284 112.8 145.96 115.8C143.457 118.9 140.865 122.2 135.592 122.2C130.318 122.2 127.726 119 125.223 115.8C122.899 112.8 120.665 110 116.285 110C111.905 110 109.671 112.8 107.347 115.8C104.844 118.9 102.252 122.2 96.9788 122.2C91.7053 122.2 89.1132 119 86.6105 115.8C84.2866 112.8 82.0521 110 77.6724 110C73.2927 110 71.0582 112.8 68.7343 115.8C66.2316 118.9 63.6395 122.2 58.366 122.2C53.0925 122.2 50.5005 119 48.0872 115.8C45.7633 112.8 43.5287 110 39.149 110C34.7693 110 32.5348 112.8 30.2109 115.8C27.7082 118.9 25.1162 122.2 19.932 122.2C14.6585 122.2 12.0665 119 9.56381 115.8C7.23989 112.8 5.00536 110 0.625671 110V108.8C5.89917 108.8 8.49123 112 10.9939 115.2C13.3178 118.2 15.5524 121 19.932 121C24.3117 121 26.5463 118.2 28.8702 115.2C31.3729 112.1 33.9649 108.8 39.149 108.8C44.4225 108.8 47.0146 112 49.4279 115.2C51.7518 118.2 53.9863 121 58.366 121C62.7457 121 64.9802 118.2 67.3042 115.2C69.8068 112.1 72.3989 108.8 77.6724 108.8C82.9459 108.8 85.538 112 88.0406 115.2C90.3645 118.2 92.5991 121 96.9788 121C101.358 121 103.593 118.2 105.917 115.2C108.42 112.1 111.012 108.8 116.285 108.8C121.559 108.8 124.151 112 126.653 115.2C128.977 118.2 131.212 121 135.592 121C139.971 121 142.206 118.2 144.53 115.2C147.032 112.1 149.624 108.8 154.898 108.8C160.171 108.8 162.763 112 165.266 115.2C167.59 118.2 169.825 121 174.204 121C178.584 121 180.818 118.2 183.142 115.2C185.645 112.1 188.237 108.8 193.511 108.8V110C189.131 110 186.896 112.8 184.572 115.8C181.98 119 179.478 122.2 174.204 122.2Z" fill="#295271"/>
<path d="M173.668 13.4C168.394 13.4 165.802 10.2 163.3 7C160.976 4 158.741 1.2 154.362 1.2C149.982 1.2 147.747 4 145.423 7C142.921 10.1 140.329 13.4 135.055 13.4C129.782 13.4 127.19 10.2 124.687 7C122.363 4 120.129 1.2 115.749 1.2C111.369 1.2 109.135 4 106.811 7C104.308 10.1 101.716 13.4 96.4425 13.4C91.169 13.4 88.6663 10.2 86.1636 7C83.8397 4 81.6052 1.2 77.2255 1.2C72.7564 1.2 70.6113 4 68.198 7C65.6953 10.1 63.1033 13.4 57.8298 13.4C52.5563 13.4 49.9642 10.2 47.5509 7C45.227 4 42.9925 1.2 38.6128 1.2C34.2331 1.2 31.9986 4 29.6746 7C27.172 10.1 24.5799 13.4 19.3958 13.4C14.1223 13.4 11.5302 10.2 9.02755 7C6.61425 4 4.37972 1.2 3.05176e-05 1.2V0C5.27353 0 7.86559 3.2 10.3683 6.4C12.6922 9.4 14.9267 12.2 19.3064 12.2C23.6861 12.2 25.9206 9.4 28.2445 6.4C30.7472 3.2 33.3393 0 38.6128 0C43.8863 0 46.4783 3.2 48.8916 6.4C51.2155 9.4 53.4501 12.2 57.8298 12.2C62.2094 12.2 64.444 9.4 66.7679 6.4C69.3599 3.2 71.952 0 77.1361 0C82.4096 0 85.0017 3.2 87.5044 6.4C89.8283 9.4 92.0628 12.2 96.4425 12.2C100.822 12.2 103.057 9.4 105.381 6.4C107.883 3.3 110.475 0 115.749 0C121.022 0 123.614 3.2 126.117 6.4C128.441 9.4 130.676 12.2 135.055 12.2C139.435 12.2 141.669 9.4 143.993 6.4C146.496 3.3 149.088 0 154.362 0C159.635 0 162.227 3.2 164.73 6.4C167.054 9.4 169.288 12.2 173.668 12.2C178.048 12.2 180.282 9.4 182.606 6.4C185.109 3.2 187.701 0 192.974 0V1.2C188.595 1.2 186.36 4 184.036 7C181.534 10.2 178.941 13.4 173.668 13.4Z" fill="#295271"/>
<path d="M173.668 24.2C168.395 24.2 165.802 21 163.3 17.8C160.976 14.8 158.741 12 154.362 12C149.982 12 147.747 14.8 145.423 17.8C142.921 20.9 140.329 24.2 135.055 24.2C129.782 24.2 127.19 21 124.687 17.8C122.363 14.8 120.129 12 115.749 12C111.369 12 109.135 14.8 106.811 17.8C104.308 20.9 101.716 24.2 96.4425 24.2C91.169 24.2 88.577 21 86.0743 17.8C83.7504 14.8 81.5158 12 77.1361 12C72.7565 12 70.5219 14.8 68.198 17.8C65.6953 20.9 63.1033 24.2 57.8298 24.2C52.5563 24.2 49.9642 21 47.5509 17.8C45.227 14.8 42.9925 12 38.6128 12C34.2331 12 31.9986 14.8 29.6746 17.8C27.172 20.9 24.5799 24.2 19.3958 24.2C14.1223 24.2 11.5302 21 9.02755 17.8C6.61425 14.8 4.37972 12 3.05176e-05 12V10.8C5.27353 10.8 7.86559 14 10.3683 17.2C12.6922 20.2 14.9267 23 19.3064 23C23.6861 23 25.9206 20.2 28.2445 17.2C30.7472 14.1 33.3393 10.8 38.5234 10.8C43.7969 10.8 46.389 14 48.8022 17.2C51.1262 20.2 53.3607 23 57.7404 23C62.1201 23 64.3546 20.2 66.6785 17.2C69.1812 14.1 71.7733 10.8 77.0468 10.8C82.3203 10.8 84.9123 14 87.415 17.2C89.7389 20.2 91.9734 23 96.3531 23C100.733 23 102.967 20.2 105.291 17.2C107.794 14.1 110.386 10.8 115.659 10.8C120.933 10.8 123.525 14 126.028 17.2C128.352 20.2 130.586 23 134.966 23C139.346 23 141.58 20.2 143.904 17.2C146.407 14.1 148.999 10.8 154.272 10.8C159.546 10.8 162.138 14 164.64 17.2C166.964 20.2 169.199 23 173.579 23C177.958 23 180.193 20.2 182.517 17.2C185.019 14.1 187.611 10.8 192.885 10.8V12C188.505 12 186.271 14.8 183.947 17.8C181.534 20.9 178.941 24.2 173.668 24.2Z" fill="#295271"/>
<path d="M173.668 35.0001C168.394 35.0001 165.802 31.8001 163.3 28.6001C160.976 25.6001 158.741 22.8001 154.362 22.8001C149.982 22.8001 147.747 25.6001 145.423 28.6001C142.921 31.7001 140.329 35.0001 135.055 35.0001C129.782 35.0001 127.19 31.8001 124.687 28.6001C122.363 25.6001 120.129 22.8001 115.749 22.8001C111.369 22.8001 109.135 25.6001 106.811 28.6001C104.308 31.7001 101.716 35.0001 96.4425 35.0001C91.169 35.0001 88.5769 31.8001 86.0742 28.6001C83.7503 25.6001 81.5158 22.8001 77.1361 22.8001C72.7564 22.8001 70.5219 25.6001 68.198 28.6001C65.6953 31.7001 63.1032 35.0001 57.8297 35.0001C52.5562 35.0001 49.9642 31.8001 47.5509 28.6001C45.227 25.6001 42.9924 22.8001 38.6127 22.8001C34.2331 22.8001 31.9985 25.6001 29.6746 28.6001C27.1719 31.7001 24.5799 35.0001 19.3958 35.0001C14.1223 35.0001 11.5302 31.8001 9.02752 28.6001C6.70361 25.6001 4.46907 22.8001 0.089386 22.8001V21.6001C5.36289 21.6001 7.95494 24.8001 10.4576 28.0001C12.7815 31.0001 15.0161 33.8001 19.3958 33.8001C23.7754 33.8001 26.01 31.0001 28.3339 28.0001C30.8366 24.9001 33.4286 21.6001 38.6127 21.6001C43.8862 21.6001 46.4783 24.8001 48.8916 28.0001C51.2155 31.0001 53.45 33.8001 57.8297 33.8001C62.2094 33.8001 64.444 31.0001 66.7679 28.0001C69.2705 24.9001 71.8626 21.6001 77.1361 21.6001C82.4096 21.6001 85.0017 24.8001 87.5043 28.0001C89.8283 31.0001 92.0628 33.8001 96.4425 33.8001C100.822 33.8001 103.057 31.0001 105.381 28.0001C107.883 24.9001 110.475 21.6001 115.749 21.6001C121.022 21.6001 123.614 24.8001 126.117 28.0001C128.441 31.0001 130.676 33.8001 135.055 33.8001C139.435 33.8001 141.669 31.0001 143.993 28.0001C146.496 24.9001 149.088 21.6001 154.362 21.6001C159.635 21.6001 162.227 24.8001 164.73 28.0001C167.054 31.0001 169.288 33.8001 173.668 33.8001C178.048 33.8001 180.282 31.0001 182.606 28.0001C185.109 24.9001 187.701 21.6001 192.974 21.6001V22.8001C188.595 22.8001 186.36 25.6001 184.036 28.6001C181.534 31.7001 178.941 35.0001 173.668 35.0001Z" fill="#295271"/>
<path d="M173.668 45.7999C168.394 45.7999 165.802 42.5999 163.3 39.3999C160.976 36.3999 158.741 33.5999 154.362 33.5999C149.982 33.5999 147.747 36.3999 145.423 39.3999C142.921 42.4999 140.329 45.7999 135.055 45.7999C129.782 45.7999 127.19 42.5999 124.687 39.3999C122.363 36.3999 120.129 33.5999 115.749 33.5999C111.369 33.5999 109.135 36.3999 106.811 39.3999C104.308 42.4999 101.716 45.7999 96.4425 45.7999C91.169 45.7999 88.5769 42.5999 86.0742 39.3999C83.7503 36.3999 81.5158 33.5999 77.1361 33.5999C72.7564 33.5999 70.5219 36.3999 68.198 39.3999C65.6953 42.4999 63.1032 45.7999 57.8297 45.7999C52.5562 45.7999 49.9642 42.5999 47.5509 39.3999C45.227 36.3999 42.9924 33.5999 38.6127 33.5999C34.2331 33.5999 31.9985 36.3999 29.6746 39.3999C27.1719 42.4999 24.5799 45.7999 19.3958 45.7999C14.1223 45.7999 11.5302 42.5999 9.02752 39.3999C6.70361 36.3999 4.46907 33.5999 0.089386 33.5999V32.3999C5.36289 32.3999 7.95494 35.5999 10.4576 38.7999C12.7815 41.7999 15.0161 44.5999 19.3958 44.5999C23.7754 44.5999 26.01 41.7999 28.3339 38.7999C30.8366 35.6999 33.4286 32.3999 38.6127 32.3999C43.8862 32.3999 46.4783 35.5999 48.8916 38.7999C51.2155 41.7999 53.45 44.5999 57.8297 44.5999C62.2094 44.5999 64.444 41.7999 66.7679 38.7999C69.2705 35.6999 71.8626 32.3999 77.1361 32.3999C82.4096 32.3999 85.0017 35.5999 87.5043 38.7999C89.8283 41.7999 92.0628 44.5999 96.4425 44.5999C100.822 44.5999 103.057 41.7999 105.381 38.7999C107.883 35.6999 110.475 32.3999 115.749 32.3999C121.022 32.3999 123.614 35.5999 126.117 38.7999C128.441 41.7999 130.676 44.5999 135.055 44.5999C139.435 44.5999 141.669 41.7999 143.993 38.7999C146.496 35.6999 149.088 32.3999 154.362 32.3999C159.635 32.3999 162.227 35.5999 164.73 38.7999C167.054 41.7999 169.288 44.5999 173.668 44.5999C178.048 44.5999 180.282 41.7999 182.606 38.7999C185.109 35.6999 187.701 32.3999 192.974 32.3999V33.5999C188.595 33.5999 186.36 36.3999 184.036 39.3999C181.534 42.4999 178.941 45.7999 173.668 45.7999Z" fill="#295271"/>
<path d="M173.668 56.5999C168.394 56.5999 165.802 53.4 163.3 50.2C160.976 47.2 158.741 44.4 154.362 44.4C149.982 44.4 147.747 47.2 145.423 50.2C142.921 53.3 140.329 56.5999 135.055 56.5999C129.782 56.5999 127.19 53.4 124.687 50.2C122.363 47.2 120.129 44.4 115.749 44.4C111.369 44.4 109.135 47.2 106.811 50.2C104.308 53.3 101.716 56.5999 96.4425 56.5999C91.169 56.5999 88.5769 53.4 86.0742 50.2C83.7503 47.2 81.5158 44.4 77.1361 44.4C72.7564 44.4 70.5219 47.2 68.198 50.2C65.6953 53.3 63.1032 56.5999 57.8297 56.5999C52.5562 56.5999 49.9642 53.4 47.5509 50.2C45.227 47.2 42.9924 44.4 38.6127 44.4C34.2331 44.4 31.9985 47.2 29.6746 50.2C27.1719 53.3 24.5799 56.5999 19.3958 56.5999C14.1223 56.5999 11.5302 53.4 9.02752 50.2C6.70361 47.2 4.46907 44.4 0.089386 44.4V43.2C5.36289 43.2 7.95494 46.3999 10.4576 49.5999C12.7815 52.5999 15.0161 55.4 19.3958 55.4C23.7754 55.4 26.01 52.5999 28.3339 49.5999C30.8366 46.4999 33.4286 43.2 38.6127 43.2C43.8862 43.2 46.4783 46.3999 48.8916 49.5999C51.2155 52.5999 53.45 55.4 57.8297 55.4C62.2094 55.4 64.444 52.5999 66.7679 49.5999C69.2705 46.4999 71.8626 43.2 77.1361 43.2C82.4096 43.2 85.0017 46.3999 87.5043 49.5999C89.8283 52.5999 92.0628 55.4 96.4425 55.4C100.822 55.4 103.057 52.5999 105.381 49.5999C107.883 46.4999 110.475 43.2 115.749 43.2C121.022 43.2 123.614 46.3999 126.117 49.5999C128.441 52.5999 130.676 55.4 135.055 55.4C139.435 55.4 141.669 52.5999 143.993 49.5999C146.496 46.4999 149.088 43.2 154.362 43.2C159.635 43.2 162.227 46.3999 164.73 49.5999C167.054 52.5999 169.288 55.4 173.668 55.4C178.048 55.4 180.282 52.5999 182.606 49.5999C185.109 46.4999 187.701 43.2 192.974 43.2V44.4C188.595 44.4 186.36 47.2 184.036 50.2C181.534 53.3 178.941 56.5999 173.668 56.5999Z" fill="#295271"/>
<path d="M173.668 67.4C168.394 67.4 165.802 64.2 163.3 61C160.976 58 158.741 55.2 154.362 55.2C149.982 55.2 147.747 58 145.423 61C142.921 64.1 140.329 67.4 135.055 67.4C129.782 67.4 127.19 64.2 124.687 61C122.363 58 120.129 55.2 115.749 55.2C111.369 55.2 109.135 58 106.811 61C104.308 64.1 101.716 67.4 96.4425 67.4C91.169 67.4 88.5769 64.2 86.0742 61C83.7503 58 81.5158 55.2 77.1361 55.2C72.7564 55.2 70.5219 58 68.198 61C65.6953 64.1 63.1032 67.4 57.8297 67.4C52.5562 67.4 49.9642 64.2 47.5509 61C45.227 58 42.9924 55.2 38.6127 55.2C34.2331 55.2 31.9985 58 29.6746 61C27.1719 64.1 24.5799 67.4 19.3958 67.4C14.1223 67.4 11.5302 64.2 9.02752 61C6.70361 58 4.46907 55.2 0.089386 55.2V54C5.36289 54 7.95494 57.2 10.4576 60.4C12.7815 63.4 15.0161 66.2 19.3958 66.2C23.7754 66.2 26.01 63.4 28.3339 60.4C30.8366 57.3 33.4286 54 38.6127 54C43.8862 54 46.4783 57.2 48.8916 60.4C51.2155 63.4 53.45 66.2 57.8297 66.2C62.2094 66.2 64.444 63.4 66.7679 60.4C69.2705 57.3 71.8626 54 77.1361 54C82.4096 54 85.0017 57.2 87.5043 60.4C89.8283 63.4 92.0628 66.2 96.4425 66.2C100.822 66.2 103.057 63.4 105.381 60.4C107.883 57.3 110.475 54 115.749 54C121.022 54 123.614 57.2 126.117 60.4C128.441 63.4 130.676 66.2 135.055 66.2C139.435 66.2 141.669 63.4 143.993 60.4C146.496 57.3 149.088 54 154.362 54C159.635 54 162.227 57.2 164.73 60.4C167.054 63.4 169.288 66.2 173.668 66.2C178.048 66.2 180.282 63.4 182.606 60.4C185.109 57.3 187.701 54 192.974 54V55.2C188.595 55.2 186.36 58 184.036 61C181.534 64.1 178.941 67.4 173.668 67.4Z" fill="#295271"/>
<path d="M173.668 78.2C168.395 78.2 165.802 75 163.3 71.8C160.976 68.8 158.741 66 154.362 66C149.982 66 147.747 68.8 145.423 71.8C142.921 74.9 140.329 78.2 135.055 78.2C129.782 78.2 127.19 75 124.687 71.8C122.363 68.8 120.129 66 115.749 66C111.369 66 109.135 68.8 106.811 71.8C104.308 74.9 101.716 78.2 96.4425 78.2C91.169 78.2 88.577 75 86.0743 71.8C83.7504 68.8 81.5158 66 77.1361 66C72.7565 66 70.5219 68.8 68.198 71.8C65.6953 74.9 63.1033 78.2 57.8298 78.2C52.5563 78.2 49.9642 75 47.5509 71.8C45.227 68.8 42.9925 66 38.6128 66C34.2331 66 31.9986 68.8 29.6746 71.8C27.172 74.9 24.5799 78.2 19.3958 78.2C14.1223 78.2 11.5302 75 9.02755 71.8C6.61425 68.8 4.37972 66 3.05176e-05 66V64.8C5.27353 64.8 7.86559 68 10.3683 71.2C12.6922 74.2 14.9267 77 19.3064 77C23.6861 77 25.9206 74.2 28.2445 71.2C30.7472 68.1 33.3393 64.8 38.5234 64.8C43.7969 64.8 46.389 68 48.8022 71.2C51.1262 74.2 53.3607 77 57.7404 77C62.1201 77 64.3546 74.2 66.6785 71.2C69.1812 68.1 71.7733 64.8 77.0468 64.8C82.3203 64.8 84.9123 68 87.415 71.2C89.7389 74.2 91.9734 77 96.3531 77C100.733 77 102.967 74.2 105.291 71.2C107.794 68.1 110.386 64.8 115.659 64.8C120.933 64.8 123.525 68 126.028 71.2C128.352 74.2 130.586 77 134.966 77C139.346 77 141.58 74.2 143.904 71.2C146.407 68.1 148.999 64.8 154.272 64.8C159.546 64.8 162.138 68 164.64 71.2C166.964 74.2 169.199 77 173.579 77C177.958 77 180.193 74.2 182.517 71.2C185.019 68.1 187.611 64.8 192.885 64.8V66C188.505 66 186.271 68.8 183.947 71.8C181.534 74.9 178.941 78.2 173.668 78.2Z" fill="#295271"/>
<path d="M173.668 89.0001C168.394 89.0001 165.802 85.8001 163.3 82.6001C160.976 79.6001 158.741 76.8001 154.362 76.8001C149.982 76.8001 147.747 79.6001 145.423 82.6001C142.921 85.7001 140.329 89.0001 135.055 89.0001C129.782 89.0001 127.19 85.8001 124.687 82.6001C122.363 79.6001 120.129 76.8001 115.749 76.8001C111.369 76.8001 109.135 79.6001 106.811 82.6001C104.308 85.7001 101.716 89.0001 96.4425 89.0001C91.169 89.0001 88.5769 85.8001 86.0742 82.6001C83.7503 79.6001 81.5158 76.8001 77.1361 76.8001C72.7564 76.8001 70.5219 79.6001 68.198 82.6001C65.6953 85.7001 63.1032 89.0001 57.8297 89.0001C52.5562 89.0001 49.9642 85.8001 47.5509 82.6001C45.227 79.6001 42.9924 76.8001 38.6127 76.8001C34.2331 76.8001 31.9985 79.6001 29.6746 82.6001C27.1719 85.7001 24.5799 89.0001 19.3958 89.0001C14.1223 89.0001 11.5302 85.8001 9.02752 82.6001C6.70361 79.6001 4.46907 76.8001 0.089386 76.8001V75.6001C5.36289 75.6001 7.95494 78.8001 10.4576 82.0001C12.7815 85.0001 15.0161 87.8001 19.3958 87.8001C23.7754 87.8001 26.01 85.0001 28.3339 82.0001C30.8366 78.9001 33.4286 75.6001 38.6127 75.6001C43.8862 75.6001 46.4783 78.8001 48.8916 82.0001C51.2155 85.0001 53.45 87.8001 57.8297 87.8001C62.2094 87.8001 64.444 85.0001 66.7679 82.0001C69.2705 78.9001 71.8626 75.6001 77.1361 75.6001C82.4096 75.6001 85.0017 78.8001 87.5043 82.0001C89.8283 85.0001 92.0628 87.8001 96.4425 87.8001C100.822 87.8001 103.057 85.0001 105.381 82.0001C107.883 78.9001 110.475 75.6001 115.749 75.6001C121.022 75.6001 123.614 78.8001 126.117 82.0001C128.441 85.0001 130.676 87.8001 135.055 87.8001C139.435 87.8001 141.669 85.0001 143.993 82.0001C146.496 78.9001 149.088 75.6001 154.362 75.6001C159.635 75.6001 162.227 78.8001 164.73 82.0001C167.054 85.0001 169.288 87.8001 173.668 87.8001C178.048 87.8001 180.282 85.0001 182.606 82.0001C185.109 78.9001 187.701 75.6001 192.974 75.6001V76.8001C188.595 76.8001 186.36 79.6001 184.036 82.6001C181.534 85.7001 178.941 89.0001 173.668 89.0001Z" fill="#295271"/>
<path d="M173.668 99.7999C168.394 99.7999 165.802 96.5999 163.3 93.3999C160.976 90.3999 158.741 87.5999 154.362 87.5999C149.982 87.5999 147.747 90.3999 145.423 93.3999C142.921 96.4999 140.329 99.7999 135.055 99.7999C129.782 99.7999 127.19 96.5999 124.687 93.3999C122.363 90.3999 120.129 87.5999 115.749 87.5999C111.369 87.5999 109.135 90.3999 106.811 93.3999C104.308 96.4999 101.716 99.7999 96.4425 99.7999C91.169 99.7999 88.5769 96.5999 86.0742 93.3999C83.7503 90.3999 81.5158 87.5999 77.1361 87.5999C72.7564 87.5999 70.5219 90.3999 68.198 93.3999C65.6953 96.4999 63.1032 99.7999 57.8297 99.7999C52.5562 99.7999 49.9642 96.5999 47.5509 93.3999C45.227 90.3999 42.9924 87.5999 38.6127 87.5999C34.2331 87.5999 31.9985 90.3999 29.6746 93.3999C27.1719 96.4999 24.5799 99.7999 19.3958 99.7999C14.1223 99.7999 11.5302 96.5999 9.02752 93.3999C6.70361 90.3999 4.46907 87.5999 0.089386 87.5999V86.3999C5.36289 86.3999 7.95494 89.5999 10.4576 92.7999C12.7815 95.7999 15.0161 98.5999 19.3958 98.5999C23.7754 98.5999 26.01 95.7999 28.3339 92.7999C30.8366 89.6999 33.4286 86.3999 38.6127 86.3999C43.8862 86.3999 46.4783 89.5999 48.8916 92.7999C51.2155 95.7999 53.45 98.5999 57.8297 98.5999C62.2094 98.5999 64.444 95.7999 66.7679 92.7999C69.2705 89.6999 71.8626 86.3999 77.1361 86.3999C82.4096 86.3999 85.0017 89.5999 87.5043 92.7999C89.8283 95.7999 92.0628 98.5999 96.4425 98.5999C100.822 98.5999 103.057 95.7999 105.381 92.7999C107.883 89.6999 110.475 86.3999 115.749 86.3999C121.022 86.3999 123.614 89.5999 126.117 92.7999C128.441 95.7999 130.676 98.5999 135.055 98.5999C139.435 98.5999 141.669 95.7999 143.993 92.7999C146.496 89.6999 149.088 86.3999 154.362 86.3999C159.635 86.3999 162.227 89.5999 164.73 92.7999C167.054 95.7999 169.288 98.5999 173.668 98.5999C178.048 98.5999 180.282 95.7999 182.606 92.7999C185.109 89.6999 187.701 86.3999 192.974 86.3999V87.5999C188.595 87.5999 186.36 90.3999 184.036 93.3999C181.534 96.4999 178.941 99.7999 173.668 99.7999Z" fill="#295271"/>
<path d="M173.668 110.6C168.394 110.6 165.802 107.4 163.3 104.2C160.976 101.2 158.741 98.4 154.362 98.4C149.982 98.4 147.747 101.2 145.423 104.2C142.921 107.3 140.329 110.6 135.055 110.6C129.782 110.6 127.19 107.4 124.687 104.2C122.363 101.2 120.129 98.4 115.749 98.4C111.369 98.4 109.135 101.2 106.811 104.2C104.308 107.3 101.716 110.6 96.4425 110.6C91.169 110.6 88.5769 107.4 86.0742 104.2C83.7503 101.2 81.5158 98.4 77.1361 98.4C72.7564 98.4 70.5219 101.2 68.198 104.2C65.6953 107.3 63.1032 110.6 57.8297 110.6C52.5562 110.6 49.9642 107.4 47.5509 104.2C45.227 101.2 42.9924 98.4 38.6127 98.4C34.2331 98.4 31.9985 101.2 29.6746 104.2C27.1719 107.3 24.5799 110.6 19.3958 110.6C14.1223 110.6 11.5302 107.4 9.02752 104.2C6.70361 101.2 4.46907 98.4 0.089386 98.4V97.2C5.36289 97.2 7.95494 100.4 10.4576 103.6C12.7815 106.6 15.0161 109.4 19.3958 109.4C23.7754 109.4 26.01 106.6 28.3339 103.6C30.8366 100.5 33.4286 97.2 38.6127 97.2C43.8862 97.2 46.4783 100.4 48.8916 103.6C51.2155 106.6 53.45 109.4 57.8297 109.4C62.2094 109.4 64.444 106.6 66.7679 103.6C69.2705 100.5 71.8626 97.2 77.1361 97.2C82.4096 97.2 85.0017 100.4 87.5043 103.6C89.8283 106.6 92.0628 109.4 96.4425 109.4C100.822 109.4 103.057 106.6 105.381 103.6C107.883 100.5 110.475 97.2 115.749 97.2C121.022 97.2 123.614 100.4 126.117 103.6C128.441 106.6 130.676 109.4 135.055 109.4C139.435 109.4 141.669 106.6 143.993 103.6C146.496 100.5 149.088 97.2 154.362 97.2C159.635 97.2 162.227 100.4 164.73 103.6C167.054 106.6 169.288 109.4 173.668 109.4C178.048 109.4 180.282 106.6 182.606 103.6C185.109 100.5 187.701 97.2 192.974 97.2V98.4C188.595 98.4 186.36 101.2 184.036 104.2C181.534 107.3 178.941 110.6 173.668 110.6Z" fill="#295271"/>
<path d="M173.668 121.3C168.394 121.3 165.802 118.1 163.3 114.9C160.976 111.9 158.741 109.1 154.362 109.1C149.982 109.1 147.747 111.9 145.423 114.9C142.921 118 140.329 121.3 135.055 121.3C129.782 121.3 127.19 118.1 124.687 114.9C122.363 111.9 120.129 109.1 115.749 109.1C111.369 109.1 109.135 111.9 106.811 114.9C104.308 118 101.716 121.3 96.4425 121.3C91.169 121.3 88.5769 118.1 86.0742 114.9C83.7503 111.9 81.5158 109.1 77.1361 109.1C72.7564 109.1 70.5219 111.9 68.198 114.9C65.6953 118 63.1032 121.3 57.8297 121.3C52.5562 121.3 49.9642 118.1 47.5509 114.9C45.227 111.9 42.9924 109.1 38.6127 109.1C34.2331 109.1 31.9985 111.9 29.6746 114.9C27.1719 118 24.5799 121.3 19.3958 121.3C14.1223 121.3 11.5302 118.1 9.02752 114.9C6.70361 111.9 4.46907 109.1 0.089386 109.1V107.9C5.36289 107.9 7.95494 111.1 10.4576 114.3C12.7815 117.3 15.0161 120.1 19.3958 120.1C23.7754 120.1 26.01 117.3 28.3339 114.3C30.8366 111.2 33.4286 107.9 38.6127 107.9C43.8862 107.9 46.4783 111.1 48.8916 114.3C51.2155 117.3 53.45 120.1 57.8297 120.1C62.2094 120.1 64.444 117.3 66.7679 114.3C69.2705 111.2 71.8626 107.9 77.1361 107.9C82.4096 107.9 85.0017 111.1 87.5043 114.3C89.8283 117.3 92.0628 120.1 96.4425 120.1C100.822 120.1 103.057 117.3 105.381 114.3C107.883 111.2 110.475 107.9 115.749 107.9C121.022 107.9 123.614 111.1 126.117 114.3C128.441 117.3 130.676 120.1 135.055 120.1C139.435 120.1 141.669 117.3 143.993 114.3C146.496 111.2 149.088 107.9 154.362 107.9C159.635 107.9 162.227 111.1 164.73 114.3C167.054 117.3 169.288 120.1 173.668 120.1C178.048 120.1 180.282 117.3 182.606 114.3C185.109 111.2 187.701 107.9 192.974 107.9V109.1C188.595 109.1 186.36 111.9 184.036 114.9C181.534 118.1 178.941 121.3 173.668 121.3Z" fill="#295271"/>
</g>
</svg>
