<svg width="53" height="45" viewBox="0 0 53 45" fill="none" xmlns="http://www.w3.org/2000/svg">
<path d="M49.0146 24.4996C48.7936 25.4749 47.8366 26.0783 46.8613 25.8573L43.3503 25.0617L41.8255 31.7911L34.8654 23.1391L23.4547 20.5534C22.4794 20.3325 21.876 19.3754 22.097 18.4002L25.6771 2.60071C25.8981 1.62543 26.8551 1.02201 27.8304 1.24301L51.237 6.54688C52.2123 6.76788 52.8157 7.72489 52.5947 8.70017L49.0146 24.4996Z" fill="#DAE2E8"/>
<path d="M5.2666 38.3748L7.25556 29.5973L5.69512 29.2437C3.64704 28.7796 2.36476 26.746 2.82885 24.6979L6.40897 8.89843C6.87306 6.85035 8.90672 5.56807 10.9548 6.03216L34.3614 11.336C36.4095 11.8001 37.6917 13.8338 37.2277 15.8819L33.6696 31.5838C33.2056 33.6319 31.1719 34.9141 29.1238 34.4501L18.3958 32.0191L5.2666 38.3748ZM5.79625 26.2893L12.0627 27.4827L10.002 33.164L18.0119 28.8307L30.9103 31.5269L34.402 14.1175L10.288 8.87994L5.79625 26.2893Z" fill="#DAE2E8"/>
</svg>
