<svg width="302" height="347" viewBox="0 0 302 347" fill="none" xmlns="http://www.w3.org/2000/svg">
<g opacity="0.1">
<path d="M302 2.81486V4.307H300.047V6.5452H298.746V4.307H296.793V2.81486H298.746V0.57666H300.047V2.81486H302Z" fill="#295271"/>
<path d="M302 20.7205V22.2126H300.047V24.4508H298.746V22.2126H296.793V20.7205H298.746V18.4823H300.047V20.7205H302Z" fill="#295271"/>
<path d="M302 38.6261V40.1182H300.047V42.3564H298.746V40.1182H296.793V38.6261H298.746V36.3879H300.047V38.6261H302Z" fill="#295271"/>
<path d="M302 56.5316V58.0237H300.047V60.2619H298.746V58.0237H296.793V56.5316H298.746V54.2934H300.047V56.5316H302Z" fill="#295271"/>
<path d="M302 74.4372V75.9294H300.047V78.1676H298.746V75.9294H296.793V74.4372H298.746V72.199H300.047V74.4372H302Z" fill="#295271"/>
<path d="M302 92.3428V93.8349H300.047V96.0731H298.746V93.8349H296.793V92.3428H298.746V90.1046H300.047V92.3428H302Z" fill="#295271"/>
<path d="M302 110.248V111.741H300.047V113.979H298.746V111.741H296.793V110.248H298.746V108.01H300.047V110.248H302Z" fill="#295271"/>
<path d="M302 128.154V129.646H300.047V131.884H298.746V129.646H296.793V128.154H298.746V125.916H300.047V128.154H302Z" fill="#295271"/>
<path d="M302 146.06V147.552H300.047V149.79H298.746V147.552H296.793V146.06H298.746V143.821H300.047V146.06H302Z" fill="#295271"/>
<path d="M302 163.965V165.457H300.047V167.696H298.746V165.457H296.793V163.965H298.746V161.727H300.047V163.965H302Z" fill="#295271"/>
<path d="M302 181.871V183.363H300.047V185.601H298.746V183.363H296.793V181.871H298.746V179.633H300.047V181.871H302Z" fill="#295271"/>
<path d="M302 199.776V201.269H300.047V203.507H298.746V201.269H296.793V199.776H298.746V197.538H300.047V199.776H302Z" fill="#295271"/>
<path d="M302 217.682V219.174H300.047V221.412H298.746V219.174H296.793V217.682H298.746V215.444H300.047V217.682H302Z" fill="#295271"/>
<path d="M302 235.588V237.08H300.047V239.318H298.746V237.08H296.793V235.588H298.746V233.349H300.047V235.588H302Z" fill="#295271"/>
<path d="M302 253.493V254.985H300.047V257.224H298.746V254.985H296.793V253.493H298.746V251.255H300.047V253.493H302Z" fill="#295271"/>
<path d="M302 271.399V272.891H300.047V275.129H298.746V272.891H296.793V271.399H298.746V269.161H300.047V271.399H302Z" fill="#295271"/>
<path d="M302 289.304V290.796H300.047V293.035H298.746V290.796H296.793V289.304H298.746V287.066H300.047V289.304H302Z" fill="#295271"/>
<path d="M302 307.21V308.702H300.047V310.94H298.746V308.702H296.793V307.21H298.746V304.972H300.047V307.21H302Z" fill="#295271"/>
<path d="M302 325.116V326.608H300.047V328.846H298.746V326.608H296.793V325.116H298.746V322.877H300.047V325.116H302Z" fill="#295271"/>
<path d="M302 343.021V344.513H300.047V346.751H298.746V344.513H296.793V343.021H298.746V340.783H300.047V343.021H302Z" fill="#295271"/>
<path d="M286.38 2.81486V4.307H284.427V6.5452H283.125V4.307H281.173V2.81486H283.125V0.57666H284.427V2.81486H286.38Z" fill="#295271"/>
<path d="M286.38 20.7205V22.2126H284.427V24.4508H283.125V22.2126H281.173V20.7205H283.125V18.4823H284.427V20.7205H286.38Z" fill="#295271"/>
<path d="M286.38 38.6261V40.1182H284.427V42.3564H283.125V40.1182H281.173V38.6261H283.125V36.3879H284.427V38.6261H286.38Z" fill="#295271"/>
<path d="M286.38 56.5316V58.0237H284.427V60.2619H283.125V58.0237H281.173V56.5316H283.125V54.2934H284.427V56.5316H286.38Z" fill="#295271"/>
<path d="M286.38 74.4372V75.9294H284.427V78.1676H283.125V75.9294H281.173V74.4372H283.125V72.199H284.427V74.4372H286.38Z" fill="#295271"/>
<path d="M286.38 92.3428V93.8349H284.427V96.0731H283.125V93.8349H281.173V92.3428H283.125V90.1046H284.427V92.3428H286.38Z" fill="#295271"/>
<path d="M286.38 110.248V111.741H284.427V113.979H283.125V111.741H281.173V110.248H283.125V108.01H284.427V110.248H286.38Z" fill="#295271"/>
<path d="M286.38 128.154V129.646H284.427V131.884H283.125V129.646H281.173V128.154H283.125V125.916H284.427V128.154H286.38Z" fill="#295271"/>
<path d="M286.38 146.06V147.552H284.427V149.79H283.125V147.552H281.173V146.06H283.125V143.821H284.427V146.06H286.38Z" fill="#295271"/>
<path d="M286.38 163.965V165.457H284.427V167.696H283.125V165.457H281.173V163.965H283.125V161.727H284.427V163.965H286.38Z" fill="#295271"/>
<path d="M286.38 181.871V183.363H284.427V185.601H283.125V183.363H281.173V181.871H283.125V179.633H284.427V181.871H286.38Z" fill="#295271"/>
<path d="M286.38 199.776V201.269H284.427V203.507H283.125V201.269H281.173V199.776H283.125V197.538H284.427V199.776H286.38Z" fill="#295271"/>
<path d="M286.38 217.682V219.174H284.427V221.412H283.125V219.174H281.173V217.682H283.125V215.444H284.427V217.682H286.38Z" fill="#295271"/>
<path d="M286.38 235.588V237.08H284.427V239.318H283.125V237.08H281.173V235.588H283.125V233.349H284.427V235.588H286.38Z" fill="#295271"/>
<path d="M286.38 253.493V254.985H284.427V257.224H283.125V254.985H281.173V253.493H283.125V251.255H284.427V253.493H286.38Z" fill="#295271"/>
<path d="M286.38 271.399V272.891H284.427V275.129H283.125V272.891H281.173V271.399H283.125V269.161H284.427V271.399H286.38Z" fill="#295271"/>
<path d="M286.38 289.304V290.796H284.427V293.035H283.125V290.796H281.173V289.304H283.125V287.066H284.427V289.304H286.38Z" fill="#295271"/>
<path d="M286.38 307.21V308.702H284.427V310.94H283.125V308.702H281.173V307.21H283.125V304.972H284.427V307.21H286.38Z" fill="#295271"/>
<path d="M286.38 325.116V326.608H284.427V328.846H283.125V326.608H281.173V325.116H283.125V322.877H284.427V325.116H286.38Z" fill="#295271"/>
<path d="M286.38 343.021V344.513H284.427V346.751H283.125V344.513H281.173V343.021H283.125V340.783H284.427V343.021H286.38Z" fill="#295271"/>
<path d="M270.759 2.81486V4.307H268.806V6.5452H267.504V4.307H265.552V2.81486H267.504V0.57666H268.806V2.81486H270.759Z" fill="#295271"/>
<path d="M270.759 20.7205V22.2126H268.806V24.4508H267.504V22.2126H265.552V20.7205H267.504V18.4823H268.806V20.7205H270.759Z" fill="#295271"/>
<path d="M270.759 38.6261V40.1182H268.806V42.3564H267.504V40.1182H265.552V38.6261H267.504V36.3879H268.806V38.6261H270.759Z" fill="#295271"/>
<path d="M270.759 56.5316V58.0237H268.806V60.2619H267.504V58.0237H265.552V56.5316H267.504V54.2934H268.806V56.5316H270.759Z" fill="#295271"/>
<path d="M270.759 74.4372V75.9294H268.806V78.1676H267.504V75.9294H265.552V74.4372H267.504V72.199H268.806V74.4372H270.759Z" fill="#295271"/>
<path d="M270.759 92.3428V93.8349H268.806V96.0731H267.504V93.8349H265.552V92.3428H267.504V90.1046H268.806V92.3428H270.759Z" fill="#295271"/>
<path d="M270.759 110.248V111.741H268.806V113.979H267.504V111.741H265.552V110.248H267.504V108.01H268.806V110.248H270.759Z" fill="#295271"/>
<path d="M270.759 128.154V129.646H268.806V131.884H267.504V129.646H265.552V128.154H267.504V125.916H268.806V128.154H270.759Z" fill="#295271"/>
<path d="M270.759 146.06V147.552H268.806V149.79H267.504V147.552H265.552V146.06H267.504V143.821H268.806V146.06H270.759Z" fill="#295271"/>
<path d="M270.759 163.965V165.457H268.806V167.696H267.504V165.457H265.552V163.965H267.504V161.727H268.806V163.965H270.759Z" fill="#295271"/>
<path d="M270.759 181.871V183.363H268.806V185.601H267.504V183.363H265.552V181.871H267.504V179.633H268.806V181.871H270.759Z" fill="#295271"/>
<path d="M270.759 199.776V201.269H268.806V203.507H267.504V201.269H265.552V199.776H267.504V197.538H268.806V199.776H270.759Z" fill="#295271"/>
<path d="M270.759 217.682V219.174H268.806V221.412H267.504V219.174H265.552V217.682H267.504V215.444H268.806V217.682H270.759Z" fill="#295271"/>
<path d="M270.759 235.588V237.08H268.806V239.318H267.504V237.08H265.552V235.588H267.504V233.349H268.806V235.588H270.759Z" fill="#295271"/>
<path d="M270.759 253.493V254.985H268.806V257.224H267.504V254.985H265.552V253.493H267.504V251.255H268.806V253.493H270.759Z" fill="#295271"/>
<path d="M270.759 271.399V272.891H268.806V275.129H267.504V272.891H265.552V271.399H267.504V269.161H268.806V271.399H270.759Z" fill="#295271"/>
<path d="M270.759 289.304V290.796H268.806V293.035H267.504V290.796H265.552V289.304H267.504V287.066H268.806V289.304H270.759Z" fill="#295271"/>
<path d="M270.759 307.21V308.702H268.806V310.94H267.504V308.702H265.552V307.21H267.504V304.972H268.806V307.21H270.759Z" fill="#295271"/>
<path d="M270.759 325.116V326.608H268.806V328.846H267.504V326.608H265.552V325.116H267.504V322.877H268.806V325.116H270.759Z" fill="#295271"/>
<path d="M270.759 343.021V344.513H268.806V346.751H267.504V344.513H265.552V343.021H267.504V340.783H268.806V343.021H270.759Z" fill="#295271"/>
<path d="M255.138 2.81486V4.307H253.186V6.5452H251.884V4.307H249.931V2.81486H251.884V0.57666H253.186V2.81486H255.138Z" fill="#295271"/>
<path d="M255.138 20.7205V22.2126H253.186V24.4508H251.884V22.2126H249.931V20.7205H251.884V18.4823H253.186V20.7205H255.138Z" fill="#295271"/>
<path d="M255.138 38.6261V40.1182H253.186V42.3564H251.884V40.1182H249.931V38.6261H251.884V36.3879H253.186V38.6261H255.138Z" fill="#295271"/>
<path d="M255.138 56.5316V58.0237H253.186V60.2619H251.884V58.0237H249.931V56.5316H251.884V54.2934H253.186V56.5316H255.138Z" fill="#295271"/>
<path d="M255.138 74.4372V75.9294H253.186V78.1676H251.884V75.9294H249.931V74.4372H251.884V72.199H253.186V74.4372H255.138Z" fill="#295271"/>
<path d="M255.138 92.3428V93.8349H253.186V96.0731H251.884V93.8349H249.931V92.3428H251.884V90.1046H253.186V92.3428H255.138Z" fill="#295271"/>
<path d="M255.138 110.248V111.741H253.186V113.979H251.884V111.741H249.931V110.248H251.884V108.01H253.186V110.248H255.138Z" fill="#295271"/>
<path d="M255.138 128.154V129.646H253.186V131.884H251.884V129.646H249.931V128.154H251.884V125.916H253.186V128.154H255.138Z" fill="#295271"/>
<path d="M255.138 146.06V147.552H253.186V149.79H251.884V147.552H249.931V146.06H251.884V143.821H253.186V146.06H255.138Z" fill="#295271"/>
<path d="M255.138 163.965V165.457H253.186V167.696H251.884V165.457H249.931V163.965H251.884V161.727H253.186V163.965H255.138Z" fill="#295271"/>
<path d="M255.138 181.871V183.363H253.186V185.601H251.884V183.363H249.931V181.871H251.884V179.633H253.186V181.871H255.138Z" fill="#295271"/>
<path d="M255.138 199.776V201.269H253.186V203.507H251.884V201.269H249.931V199.776H251.884V197.538H253.186V199.776H255.138Z" fill="#295271"/>
<path d="M255.138 217.682V219.174H253.186V221.412H251.884V219.174H249.931V217.682H251.884V215.444H253.186V217.682H255.138Z" fill="#295271"/>
<path d="M255.138 235.588V237.08H253.186V239.318H251.884V237.08H249.931V235.588H251.884V233.349H253.186V235.588H255.138Z" fill="#295271"/>
<path d="M255.138 253.493V254.985H253.186V257.224H251.884V254.985H249.931V253.493H251.884V251.255H253.186V253.493H255.138Z" fill="#295271"/>
<path d="M255.138 271.399V272.891H253.186V275.129H251.884V272.891H249.931V271.399H251.884V269.161H253.186V271.399H255.138Z" fill="#295271"/>
<path d="M255.138 289.304V290.796H253.186V293.035H251.884V290.796H249.931V289.304H251.884V287.066H253.186V289.304H255.138Z" fill="#295271"/>
<path d="M255.138 307.21V308.702H253.186V310.94H251.884V308.702H249.931V307.21H251.884V304.972H253.186V307.21H255.138Z" fill="#295271"/>
<path d="M255.138 325.116V326.608H253.186V328.846H251.884V326.608H249.931V325.116H251.884V322.877H253.186V325.116H255.138Z" fill="#295271"/>
<path d="M255.138 343.021V344.513H253.186V346.751H251.884V344.513H249.931V343.021H251.884V340.783H253.186V343.021H255.138Z" fill="#295271"/>
<path d="M239.518 2.81486V4.307H237.565V6.5452H236.263V4.307H234.311V2.81486H236.263V0.57666H237.565V2.81486H239.518Z" fill="#295271"/>
<path d="M239.518 20.7205V22.2126H237.565V24.4508H236.263V22.2126H234.311V20.7205H236.263V18.4823H237.565V20.7205H239.518Z" fill="#295271"/>
<path d="M239.518 38.6261V40.1182H237.565V42.3564H236.263V40.1182H234.311V38.6261H236.263V36.3879H237.565V38.6261H239.518Z" fill="#295271"/>
<path d="M239.518 56.5316V58.0237H237.565V60.2619H236.263V58.0237H234.311V56.5316H236.263V54.2934H237.565V56.5316H239.518Z" fill="#295271"/>
<path d="M239.518 74.4372V75.9294H237.565V78.1676H236.263V75.9294H234.311V74.4372H236.263V72.199H237.565V74.4372H239.518Z" fill="#295271"/>
<path d="M239.518 92.3428V93.8349H237.565V96.0731H236.263V93.8349H234.311V92.3428H236.263V90.1046H237.565V92.3428H239.518Z" fill="#295271"/>
<path d="M239.518 110.248V111.741H237.565V113.979H236.263V111.741H234.311V110.248H236.263V108.01H237.565V110.248H239.518Z" fill="#295271"/>
<path d="M239.518 128.154V129.646H237.565V131.884H236.263V129.646H234.311V128.154H236.263V125.916H237.565V128.154H239.518Z" fill="#295271"/>
<path d="M239.518 146.06V147.552H237.565V149.79H236.263V147.552H234.311V146.06H236.263V143.821H237.565V146.06H239.518Z" fill="#295271"/>
<path d="M239.518 163.965V165.457H237.565V167.696H236.263V165.457H234.311V163.965H236.263V161.727H237.565V163.965H239.518Z" fill="#295271"/>
<path d="M239.518 181.871V183.363H237.565V185.601H236.263V183.363H234.311V181.871H236.263V179.633H237.565V181.871H239.518Z" fill="#295271"/>
<path d="M239.518 199.776V201.269H237.565V203.507H236.263V201.269H234.311V199.776H236.263V197.538H237.565V199.776H239.518Z" fill="#295271"/>
<path d="M239.518 217.682V219.174H237.565V221.412H236.263V219.174H234.311V217.682H236.263V215.444H237.565V217.682H239.518Z" fill="#295271"/>
<path d="M239.518 235.588V237.08H237.565V239.318H236.263V237.08H234.311V235.588H236.263V233.349H237.565V235.588H239.518Z" fill="#295271"/>
<path d="M239.518 253.493V254.985H237.565V257.224H236.263V254.985H234.311V253.493H236.263V251.255H237.565V253.493H239.518Z" fill="#295271"/>
<path d="M239.518 271.399V272.891H237.565V275.129H236.263V272.891H234.311V271.399H236.263V269.161H237.565V271.399H239.518Z" fill="#295271"/>
<path d="M239.518 289.304V290.796H237.565V293.035H236.263V290.796H234.311V289.304H236.263V287.066H237.565V289.304H239.518Z" fill="#295271"/>
<path d="M239.518 307.21V308.702H237.565V310.94H236.263V308.702H234.311V307.21H236.263V304.972H237.565V307.21H239.518Z" fill="#295271"/>
<path d="M239.518 325.116V326.608H237.565V328.846H236.263V326.608H234.311V325.116H236.263V322.877H237.565V325.116H239.518Z" fill="#295271"/>
<path d="M239.518 343.021V344.513H237.565V346.751H236.263V344.513H234.311V343.021H236.263V340.783H237.565V343.021H239.518Z" fill="#295271"/>
<path d="M223.897 2.81486V4.307H221.944V6.5452H220.642V4.307H218.69V2.81486H220.642V0.57666H221.944V2.81486H223.897Z" fill="#295271"/>
<path d="M223.897 20.7205V22.2126H221.944V24.4508H220.642V22.2126H218.69V20.7205H220.642V18.4823H221.944V20.7205H223.897Z" fill="#295271"/>
<path d="M223.897 38.6261V40.1182H221.944V42.3564H220.642V40.1182H218.69V38.6261H220.642V36.3879H221.944V38.6261H223.897Z" fill="#295271"/>
<path d="M223.897 56.5316V58.0237H221.944V60.2619H220.642V58.0237H218.69V56.5316H220.642V54.2934H221.944V56.5316H223.897Z" fill="#295271"/>
<path d="M223.897 74.4372V75.9294H221.944V78.1676H220.642V75.9294H218.69V74.4372H220.642V72.199H221.944V74.4372H223.897Z" fill="#295271"/>
<path d="M223.897 92.3428V93.8349H221.944V96.0731H220.642V93.8349H218.69V92.3428H220.642V90.1046H221.944V92.3428H223.897Z" fill="#295271"/>
<path d="M223.897 110.248V111.741H221.944V113.979H220.642V111.741H218.69V110.248H220.642V108.01H221.944V110.248H223.897Z" fill="#295271"/>
<path d="M223.897 128.154V129.646H221.944V131.884H220.642V129.646H218.69V128.154H220.642V125.916H221.944V128.154H223.897Z" fill="#295271"/>
<path d="M223.897 146.06V147.552H221.944V149.79H220.642V147.552H218.69V146.06H220.642V143.821H221.944V146.06H223.897Z" fill="#295271"/>
<path d="M223.897 163.965V165.457H221.944V167.696H220.642V165.457H218.69V163.965H220.642V161.727H221.944V163.965H223.897Z" fill="#295271"/>
<path d="M223.897 181.871V183.363H221.944V185.601H220.642V183.363H218.69V181.871H220.642V179.633H221.944V181.871H223.897Z" fill="#295271"/>
<path d="M223.897 199.776V201.269H221.944V203.507H220.642V201.269H218.69V199.776H220.642V197.538H221.944V199.776H223.897Z" fill="#295271"/>
<path d="M223.897 217.682V219.174H221.944V221.412H220.642V219.174H218.69V217.682H220.642V215.444H221.944V217.682H223.897Z" fill="#295271"/>
<path d="M223.897 235.588V237.08H221.944V239.318H220.642V237.08H218.69V235.588H220.642V233.349H221.944V235.588H223.897Z" fill="#295271"/>
<path d="M223.897 253.493V254.985H221.944V257.224H220.642V254.985H218.69V253.493H220.642V251.255H221.944V253.493H223.897Z" fill="#295271"/>
<path d="M223.897 271.399V272.891H221.944V275.129H220.642V272.891H218.69V271.399H220.642V269.161H221.944V271.399H223.897Z" fill="#295271"/>
<path d="M223.897 289.304V290.796H221.944V293.035H220.642V290.796H218.69V289.304H220.642V287.066H221.944V289.304H223.897Z" fill="#295271"/>
<path d="M223.897 307.21V308.702H221.944V310.94H220.642V308.702H218.69V307.21H220.642V304.972H221.944V307.21H223.897Z" fill="#295271"/>
<path d="M223.897 325.116V326.608H221.944V328.846H220.642V326.608H218.69V325.116H220.642V322.877H221.944V325.116H223.897Z" fill="#295271"/>
<path d="M223.897 343.021V344.513H221.944V346.751H220.642V344.513H218.69V343.021H220.642V340.783H221.944V343.021H223.897Z" fill="#295271"/>
<path d="M208.276 2.81486V4.307H206.324V6.5452H205.022V4.307H203.069V2.81486H205.022V0.57666H206.324V2.81486H208.276Z" fill="#295271"/>
<path d="M208.276 20.7205V22.2126H206.324V24.4508H205.022V22.2126H203.069V20.7205H205.022V18.4823H206.324V20.7205H208.276Z" fill="#295271"/>
<path d="M208.276 38.6261V40.1182H206.324V42.3564H205.022V40.1182H203.069V38.6261H205.022V36.3879H206.324V38.6261H208.276Z" fill="#295271"/>
<path d="M208.276 56.5316V58.0237H206.324V60.2619H205.022V58.0237H203.069V56.5316H205.022V54.2934H206.324V56.5316H208.276Z" fill="#295271"/>
<path d="M208.276 74.4372V75.9294H206.324V78.1676H205.022V75.9294H203.069V74.4372H205.022V72.199H206.324V74.4372H208.276Z" fill="#295271"/>
<path d="M208.276 92.3428V93.8349H206.324V96.0731H205.022V93.8349H203.069V92.3428H205.022V90.1046H206.324V92.3428H208.276Z" fill="#295271"/>
<path d="M208.276 110.248V111.741H206.324V113.979H205.022V111.741H203.069V110.248H205.022V108.01H206.324V110.248H208.276Z" fill="#295271"/>
<path d="M208.276 128.154V129.646H206.324V131.884H205.022V129.646H203.069V128.154H205.022V125.916H206.324V128.154H208.276Z" fill="#295271"/>
<path d="M208.276 146.06V147.552H206.324V149.79H205.022V147.552H203.069V146.06H205.022V143.821H206.324V146.06H208.276Z" fill="#295271"/>
<path d="M208.276 163.965V165.457H206.324V167.696H205.022V165.457H203.069V163.965H205.022V161.727H206.324V163.965H208.276Z" fill="#295271"/>
<path d="M208.276 181.871V183.363H206.324V185.601H205.022V183.363H203.069V181.871H205.022V179.633H206.324V181.871H208.276Z" fill="#295271"/>
<path d="M208.276 199.776V201.269H206.324V203.507H205.022V201.269H203.069V199.776H205.022V197.538H206.324V199.776H208.276Z" fill="#295271"/>
<path d="M208.276 217.682V219.174H206.324V221.412H205.022V219.174H203.069V217.682H205.022V215.444H206.324V217.682H208.276Z" fill="#295271"/>
<path d="M208.276 235.588V237.08H206.324V239.318H205.022V237.08H203.069V235.588H205.022V233.349H206.324V235.588H208.276Z" fill="#295271"/>
<path d="M208.276 253.493V254.985H206.324V257.224H205.022V254.985H203.069V253.493H205.022V251.255H206.324V253.493H208.276Z" fill="#295271"/>
<path d="M208.276 271.399V272.891H206.324V275.129H205.022V272.891H203.069V271.399H205.022V269.161H206.324V271.399H208.276Z" fill="#295271"/>
<path d="M208.276 289.304V290.796H206.324V293.035H205.022V290.796H203.069V289.304H205.022V287.066H206.324V289.304H208.276Z" fill="#295271"/>
<path d="M208.276 307.21V308.702H206.324V310.94H205.022V308.702H203.069V307.21H205.022V304.972H206.324V307.21H208.276Z" fill="#295271"/>
<path d="M208.276 325.116V326.608H206.324V328.846H205.022V326.608H203.069V325.116H205.022V322.877H206.324V325.116H208.276Z" fill="#295271"/>
<path d="M208.276 343.021V344.513H206.324V346.751H205.022V344.513H203.069V343.021H205.022V340.783H206.324V343.021H208.276Z" fill="#295271"/>
<path d="M192.655 2.81486V4.307H190.703V6.5452H189.401V4.307H187.448V2.81486H189.401V0.57666H190.703V2.81486H192.655Z" fill="#295271"/>
<path d="M192.655 20.7205V22.2126H190.703V24.4508H189.401V22.2126H187.448V20.7205H189.401V18.4823H190.703V20.7205H192.655Z" fill="#295271"/>
<path d="M192.655 38.6261V40.1182H190.703V42.3564H189.401V40.1182H187.448V38.6261H189.401V36.3879H190.703V38.6261H192.655Z" fill="#295271"/>
<path d="M192.655 56.5316V58.0237H190.703V60.2619H189.401V58.0237H187.448V56.5316H189.401V54.2934H190.703V56.5316H192.655Z" fill="#295271"/>
<path d="M192.655 74.4372V75.9294H190.703V78.1676H189.401V75.9294H187.448V74.4372H189.401V72.199H190.703V74.4372H192.655Z" fill="#295271"/>
<path d="M192.655 92.3428V93.8349H190.703V96.0731H189.401V93.8349H187.448V92.3428H189.401V90.1046H190.703V92.3428H192.655Z" fill="#295271"/>
<path d="M192.655 110.248V111.741H190.703V113.979H189.401V111.741H187.448V110.248H189.401V108.01H190.703V110.248H192.655Z" fill="#295271"/>
<path d="M192.655 128.154V129.646H190.703V131.884H189.401V129.646H187.448V128.154H189.401V125.916H190.703V128.154H192.655Z" fill="#295271"/>
<path d="M192.655 146.06V147.552H190.703V149.79H189.401V147.552H187.448V146.06H189.401V143.821H190.703V146.06H192.655Z" fill="#295271"/>
<path d="M192.655 163.965V165.457H190.703V167.696H189.401V165.457H187.448V163.965H189.401V161.727H190.703V163.965H192.655Z" fill="#295271"/>
<path d="M192.655 181.871V183.363H190.703V185.601H189.401V183.363H187.448V181.871H189.401V179.633H190.703V181.871H192.655Z" fill="#295271"/>
<path d="M192.655 199.776V201.269H190.703V203.507H189.401V201.269H187.448V199.776H189.401V197.538H190.703V199.776H192.655Z" fill="#295271"/>
<path d="M192.655 217.682V219.174H190.703V221.412H189.401V219.174H187.448V217.682H189.401V215.444H190.703V217.682H192.655Z" fill="#295271"/>
<path d="M192.655 235.588V237.08H190.703V239.318H189.401V237.08H187.448V235.588H189.401V233.349H190.703V235.588H192.655Z" fill="#295271"/>
<path d="M192.655 253.493V254.985H190.703V257.224H189.401V254.985H187.448V253.493H189.401V251.255H190.703V253.493H192.655Z" fill="#295271"/>
<path d="M192.655 271.399V272.891H190.703V275.129H189.401V272.891H187.448V271.399H189.401V269.161H190.703V271.399H192.655Z" fill="#295271"/>
<path d="M192.655 289.304V290.796H190.703V293.035H189.401V290.796H187.448V289.304H189.401V287.066H190.703V289.304H192.655Z" fill="#295271"/>
<path d="M192.655 307.21V308.702H190.703V310.94H189.401V308.702H187.448V307.21H189.401V304.972H190.703V307.21H192.655Z" fill="#295271"/>
<path d="M192.655 325.116V326.608H190.703V328.846H189.401V326.608H187.448V325.116H189.401V322.877H190.703V325.116H192.655Z" fill="#295271"/>
<path d="M192.655 343.021V344.513H190.703V346.751H189.401V344.513H187.448V343.021H189.401V340.783H190.703V343.021H192.655Z" fill="#295271"/>
<path d="M177.035 2.81486V4.307H175.082V6.5452H173.78V4.307H171.828V2.81486H173.78V0.57666H175.082V2.81486H177.035Z" fill="#295271"/>
<path d="M177.035 20.7205V22.2126H175.082V24.4508H173.78V22.2126H171.828V20.7205H173.78V18.4823H175.082V20.7205H177.035Z" fill="#295271"/>
<path d="M177.035 38.6261V40.1182H175.082V42.3564H173.78V40.1182H171.828V38.6261H173.78V36.3879H175.082V38.6261H177.035Z" fill="#295271"/>
<path d="M177.035 56.5316V58.0237H175.082V60.2619H173.78V58.0237H171.828V56.5316H173.78V54.2934H175.082V56.5316H177.035Z" fill="#295271"/>
<path d="M177.035 74.4372V75.9294H175.082V78.1676H173.78V75.9294H171.828V74.4372H173.78V72.199H175.082V74.4372H177.035Z" fill="#295271"/>
<path d="M177.035 92.3428V93.8349H175.082V96.0731H173.78V93.8349H171.828V92.3428H173.78V90.1046H175.082V92.3428H177.035Z" fill="#295271"/>
<path d="M177.035 110.248V111.741H175.082V113.979H173.78V111.741H171.828V110.248H173.78V108.01H175.082V110.248H177.035Z" fill="#295271"/>
<path d="M177.035 128.154V129.646H175.082V131.884H173.78V129.646H171.828V128.154H173.78V125.916H175.082V128.154H177.035Z" fill="#295271"/>
<path d="M177.035 146.06V147.552H175.082V149.79H173.78V147.552H171.828V146.06H173.78V143.821H175.082V146.06H177.035Z" fill="#295271"/>
<path d="M177.035 163.965V165.457H175.082V167.696H173.78V165.457H171.828V163.965H173.78V161.727H175.082V163.965H177.035Z" fill="#295271"/>
<path d="M177.035 181.871V183.363H175.082V185.601H173.78V183.363H171.828V181.871H173.78V179.633H175.082V181.871H177.035Z" fill="#295271"/>
<path d="M177.035 199.776V201.269H175.082V203.507H173.78V201.269H171.828V199.776H173.78V197.538H175.082V199.776H177.035Z" fill="#295271"/>
<path d="M177.035 217.682V219.174H175.082V221.412H173.78V219.174H171.828V217.682H173.78V215.444H175.082V217.682H177.035Z" fill="#295271"/>
<path d="M177.035 235.588V237.08H175.082V239.318H173.78V237.08H171.828V235.588H173.78V233.349H175.082V235.588H177.035Z" fill="#295271"/>
<path d="M177.035 253.493V254.985H175.082V257.224H173.78V254.985H171.828V253.493H173.78V251.255H175.082V253.493H177.035Z" fill="#295271"/>
<path d="M177.035 271.399V272.891H175.082V275.129H173.78V272.891H171.828V271.399H173.78V269.161H175.082V271.399H177.035Z" fill="#295271"/>
<path d="M177.035 289.304V290.796H175.082V293.035H173.78V290.796H171.828V289.304H173.78V287.066H175.082V289.304H177.035Z" fill="#295271"/>
<path d="M177.035 307.21V308.702H175.082V310.94H173.78V308.702H171.828V307.21H173.78V304.972H175.082V307.21H177.035Z" fill="#295271"/>
<path d="M177.035 325.116V326.608H175.082V328.846H173.78V326.608H171.828V325.116H173.78V322.877H175.082V325.116H177.035Z" fill="#295271"/>
<path d="M177.035 343.021V344.513H175.082V346.751H173.78V344.513H171.828V343.021H173.78V340.783H175.082V343.021H177.035Z" fill="#295271"/>
<path d="M161.414 2.81486V4.307H159.461V6.5452H158.16V4.307H156.207V2.81486H158.16V0.57666H159.461V2.81486H161.414Z" fill="#295271"/>
<path d="M161.414 20.7205V22.2126H159.461V24.4508H158.16V22.2126H156.207V20.7205H158.16V18.4823H159.461V20.7205H161.414Z" fill="#295271"/>
<path d="M161.414 38.6261V40.1182H159.461V42.3564H158.16V40.1182H156.207V38.6261H158.16V36.3879H159.461V38.6261H161.414Z" fill="#295271"/>
<path d="M161.414 56.5316V58.0237H159.461V60.2619H158.16V58.0237H156.207V56.5316H158.16V54.2934H159.461V56.5316H161.414Z" fill="#295271"/>
<path d="M161.414 74.4372V75.9294H159.461V78.1676H158.16V75.9294H156.207V74.4372H158.16V72.199H159.461V74.4372H161.414Z" fill="#295271"/>
<path d="M161.414 92.3428V93.8349H159.461V96.0731H158.16V93.8349H156.207V92.3428H158.16V90.1046H159.461V92.3428H161.414Z" fill="#295271"/>
<path d="M161.414 110.248V111.741H159.461V113.979H158.16V111.741H156.207V110.248H158.16V108.01H159.461V110.248H161.414Z" fill="#295271"/>
<path d="M161.414 128.154V129.646H159.461V131.884H158.16V129.646H156.207V128.154H158.16V125.916H159.461V128.154H161.414Z" fill="#295271"/>
<path d="M161.414 146.06V147.552H159.461V149.79H158.16V147.552H156.207V146.06H158.16V143.821H159.461V146.06H161.414Z" fill="#295271"/>
<path d="M161.414 163.965V165.457H159.461V167.696H158.16V165.457H156.207V163.965H158.16V161.727H159.461V163.965H161.414Z" fill="#295271"/>
<path d="M161.414 181.871V183.363H159.461V185.601H158.16V183.363H156.207V181.871H158.16V179.633H159.461V181.871H161.414Z" fill="#295271"/>
<path d="M161.414 199.776V201.269H159.461V203.507H158.16V201.269H156.207V199.776H158.16V197.538H159.461V199.776H161.414Z" fill="#295271"/>
<path d="M161.414 217.682V219.174H159.461V221.412H158.16V219.174H156.207V217.682H158.16V215.444H159.461V217.682H161.414Z" fill="#295271"/>
<path d="M161.414 235.588V237.08H159.461V239.318H158.16V237.08H156.207V235.588H158.16V233.349H159.461V235.588H161.414Z" fill="#295271"/>
<path d="M161.414 253.493V254.985H159.461V257.224H158.16V254.985H156.207V253.493H158.16V251.255H159.461V253.493H161.414Z" fill="#295271"/>
<path d="M161.414 271.399V272.891H159.461V275.129H158.16V272.891H156.207V271.399H158.16V269.161H159.461V271.399H161.414Z" fill="#295271"/>
<path d="M161.414 289.304V290.796H159.461V293.035H158.16V290.796H156.207V289.304H158.16V287.066H159.461V289.304H161.414Z" fill="#295271"/>
<path d="M161.414 307.21V308.702H159.461V310.94H158.16V308.702H156.207V307.21H158.16V304.972H159.461V307.21H161.414Z" fill="#295271"/>
<path d="M161.414 325.116V326.608H159.461V328.846H158.16V326.608H156.207V325.116H158.16V322.877H159.461V325.116H161.414Z" fill="#295271"/>
<path d="M161.414 343.021V344.513H159.461V346.751H158.16V344.513H156.207V343.021H158.16V340.783H159.461V343.021H161.414Z" fill="#295271"/>
<path d="M145.793 2.81486V4.307H143.841V6.5452H142.539V4.307H140.586V2.81486H142.539V0.57666H143.841V2.81486H145.793Z" fill="#295271"/>
<path d="M145.793 20.7205V22.2126H143.841V24.4508H142.539V22.2126H140.586V20.7205H142.539V18.4823H143.841V20.7205H145.793Z" fill="#295271"/>
<path d="M145.793 38.6261V40.1182H143.841V42.3564H142.539V40.1182H140.586V38.6261H142.539V36.3879H143.841V38.6261H145.793Z" fill="#295271"/>
<path d="M145.793 56.5316V58.0237H143.841V60.2619H142.539V58.0237H140.586V56.5316H142.539V54.2934H143.841V56.5316H145.793Z" fill="#295271"/>
<path d="M145.793 74.4372V75.9294H143.841V78.1676H142.539V75.9294H140.586V74.4372H142.539V72.199H143.841V74.4372H145.793Z" fill="#295271"/>
<path d="M145.793 92.3428V93.8349H143.841V96.0731H142.539V93.8349H140.586V92.3428H142.539V90.1046H143.841V92.3428H145.793Z" fill="#295271"/>
<path d="M145.793 110.248V111.741H143.841V113.979H142.539V111.741H140.586V110.248H142.539V108.01H143.841V110.248H145.793Z" fill="#295271"/>
<path d="M145.793 128.154V129.646H143.841V131.884H142.539V129.646H140.586V128.154H142.539V125.916H143.841V128.154H145.793Z" fill="#295271"/>
<path d="M145.793 146.06V147.552H143.841V149.79H142.539V147.552H140.586V146.06H142.539V143.821H143.841V146.06H145.793Z" fill="#295271"/>
<path d="M145.793 163.965V165.457H143.841V167.696H142.539V165.457H140.586V163.965H142.539V161.727H143.841V163.965H145.793Z" fill="#295271"/>
<path d="M145.793 181.871V183.363H143.841V185.601H142.539V183.363H140.586V181.871H142.539V179.633H143.841V181.871H145.793Z" fill="#295271"/>
<path d="M145.793 199.776V201.269H143.841V203.507H142.539V201.269H140.586V199.776H142.539V197.538H143.841V199.776H145.793Z" fill="#295271"/>
<path d="M145.793 217.682V219.174H143.841V221.412H142.539V219.174H140.586V217.682H142.539V215.444H143.841V217.682H145.793Z" fill="#295271"/>
<path d="M145.793 235.588V237.08H143.841V239.318H142.539V237.08H140.586V235.588H142.539V233.349H143.841V235.588H145.793Z" fill="#295271"/>
<path d="M145.793 253.493V254.985H143.841V257.224H142.539V254.985H140.586V253.493H142.539V251.255H143.841V253.493H145.793Z" fill="#295271"/>
<path d="M145.793 271.399V272.891H143.841V275.129H142.539V272.891H140.586V271.399H142.539V269.161H143.841V271.399H145.793Z" fill="#295271"/>
<path d="M145.793 289.304V290.796H143.841V293.035H142.539V290.796H140.586V289.304H142.539V287.066H143.841V289.304H145.793Z" fill="#295271"/>
<path d="M145.793 307.21V308.702H143.841V310.94H142.539V308.702H140.586V307.21H142.539V304.972H143.841V307.21H145.793Z" fill="#295271"/>
<path d="M145.793 325.116V326.608H143.841V328.846H142.539V326.608H140.586V325.116H142.539V322.877H143.841V325.116H145.793Z" fill="#295271"/>
<path d="M145.793 343.021V344.513H143.841V346.751H142.539V344.513H140.586V343.021H142.539V340.783H143.841V343.021H145.793Z" fill="#295271"/>
<path d="M130.173 2.81486V4.307H128.22V6.5452H126.918V4.307H124.966V2.81486H126.918V0.57666H128.22V2.81486H130.173Z" fill="#295271"/>
<path d="M130.173 20.7205V22.2126H128.22V24.4508H126.918V22.2126H124.966V20.7205H126.918V18.4823H128.22V20.7205H130.173Z" fill="#295271"/>
<path d="M130.173 38.6261V40.1182H128.22V42.3564H126.918V40.1182H124.966V38.6261H126.918V36.3879H128.22V38.6261H130.173Z" fill="#295271"/>
<path d="M130.173 56.5316V58.0237H128.22V60.2619H126.918V58.0237H124.966V56.5316H126.918V54.2934H128.22V56.5316H130.173Z" fill="#295271"/>
<path d="M130.173 74.4372V75.9294H128.22V78.1676H126.918V75.9294H124.966V74.4372H126.918V72.199H128.22V74.4372H130.173Z" fill="#295271"/>
<path d="M130.173 92.3428V93.8349H128.22V96.0731H126.918V93.8349H124.966V92.3428H126.918V90.1046H128.22V92.3428H130.173Z" fill="#295271"/>
<path d="M130.173 110.248V111.741H128.22V113.979H126.918V111.741H124.966V110.248H126.918V108.01H128.22V110.248H130.173Z" fill="#295271"/>
<path d="M130.173 128.154V129.646H128.22V131.884H126.918V129.646H124.966V128.154H126.918V125.916H128.22V128.154H130.173Z" fill="#295271"/>
<path d="M130.173 146.06V147.552H128.22V149.79H126.918V147.552H124.966V146.06H126.918V143.821H128.22V146.06H130.173Z" fill="#295271"/>
<path d="M130.173 163.965V165.457H128.22V167.696H126.918V165.457H124.966V163.965H126.918V161.727H128.22V163.965H130.173Z" fill="#295271"/>
<path d="M130.173 181.871V183.363H128.22V185.601H126.918V183.363H124.966V181.871H126.918V179.633H128.22V181.871H130.173Z" fill="#295271"/>
<path d="M130.173 199.776V201.269H128.22V203.507H126.918V201.269H124.966V199.776H126.918V197.538H128.22V199.776H130.173Z" fill="#295271"/>
<path d="M130.173 217.682V219.174H128.22V221.412H126.918V219.174H124.966V217.682H126.918V215.444H128.22V217.682H130.173Z" fill="#295271"/>
<path d="M130.173 235.588V237.08H128.22V239.318H126.918V237.08H124.966V235.588H126.918V233.349H128.22V235.588H130.173Z" fill="#295271"/>
<path d="M130.173 253.493V254.985H128.22V257.224H126.918V254.985H124.966V253.493H126.918V251.255H128.22V253.493H130.173Z" fill="#295271"/>
<path d="M130.173 271.399V272.891H128.22V275.129H126.918V272.891H124.966V271.399H126.918V269.161H128.22V271.399H130.173Z" fill="#295271"/>
<path d="M130.173 289.304V290.796H128.22V293.035H126.918V290.796H124.966V289.304H126.918V287.066H128.22V289.304H130.173Z" fill="#295271"/>
<path d="M130.173 307.21V308.702H128.22V310.94H126.918V308.702H124.966V307.21H126.918V304.972H128.22V307.21H130.173Z" fill="#295271"/>
<path d="M130.173 325.116V326.608H128.22V328.846H126.918V326.608H124.966V325.116H126.918V322.877H128.22V325.116H130.173Z" fill="#295271"/>
<path d="M130.173 343.021V344.513H128.22V346.751H126.918V344.513H124.966V343.021H126.918V340.783H128.22V343.021H130.173Z" fill="#295271"/>
<path d="M114.552 2.81486V4.307H112.599V6.5452H111.298V4.307H109.345V2.81486H111.298V0.57666H112.599V2.81486H114.552Z" fill="#295271"/>
<path d="M114.552 20.7205V22.2126H112.599V24.4508H111.298V22.2126H109.345V20.7205H111.298V18.4823H112.599V20.7205H114.552Z" fill="#295271"/>
<path d="M114.552 38.6261V40.1182H112.599V42.3564H111.298V40.1182H109.345V38.6261H111.298V36.3879H112.599V38.6261H114.552Z" fill="#295271"/>
<path d="M114.552 56.5316V58.0237H112.599V60.2619H111.298V58.0237H109.345V56.5316H111.298V54.2934H112.599V56.5316H114.552Z" fill="#295271"/>
<path d="M114.552 74.4372V75.9294H112.599V78.1676H111.298V75.9294H109.345V74.4372H111.298V72.199H112.599V74.4372H114.552Z" fill="#295271"/>
<path d="M114.552 92.3428V93.8349H112.599V96.0731H111.298V93.8349H109.345V92.3428H111.298V90.1046H112.599V92.3428H114.552Z" fill="#295271"/>
<path d="M114.552 110.248V111.741H112.599V113.979H111.298V111.741H109.345V110.248H111.298V108.01H112.599V110.248H114.552Z" fill="#295271"/>
<path d="M114.552 128.154V129.646H112.599V131.884H111.298V129.646H109.345V128.154H111.298V125.916H112.599V128.154H114.552Z" fill="#295271"/>
<path d="M114.552 146.06V147.552H112.599V149.79H111.298V147.552H109.345V146.06H111.298V143.821H112.599V146.06H114.552Z" fill="#295271"/>
<path d="M114.552 163.965V165.457H112.599V167.696H111.298V165.457H109.345V163.965H111.298V161.727H112.599V163.965H114.552Z" fill="#295271"/>
<path d="M114.552 181.871V183.363H112.599V185.601H111.298V183.363H109.345V181.871H111.298V179.633H112.599V181.871H114.552Z" fill="#295271"/>
<path d="M114.552 199.776V201.269H112.599V203.507H111.298V201.269H109.345V199.776H111.298V197.538H112.599V199.776H114.552Z" fill="#295271"/>
<path d="M114.552 217.682V219.174H112.599V221.412H111.298V219.174H109.345V217.682H111.298V215.444H112.599V217.682H114.552Z" fill="#295271"/>
<path d="M114.552 235.588V237.08H112.599V239.318H111.298V237.08H109.345V235.588H111.298V233.349H112.599V235.588H114.552Z" fill="#295271"/>
<path d="M114.552 253.493V254.985H112.599V257.224H111.298V254.985H109.345V253.493H111.298V251.255H112.599V253.493H114.552Z" fill="#295271"/>
<path d="M114.552 271.399V272.891H112.599V275.129H111.298V272.891H109.345V271.399H111.298V269.161H112.599V271.399H114.552Z" fill="#295271"/>
<path d="M114.552 289.304V290.796H112.599V293.035H111.298V290.796H109.345V289.304H111.298V287.066H112.599V289.304H114.552Z" fill="#295271"/>
<path d="M114.552 307.21V308.702H112.599V310.94H111.298V308.702H109.345V307.21H111.298V304.972H112.599V307.21H114.552Z" fill="#295271"/>
<path d="M114.552 325.116V326.608H112.599V328.846H111.298V326.608H109.345V325.116H111.298V322.877H112.599V325.116H114.552Z" fill="#295271"/>
<path d="M114.552 343.021V344.513H112.599V346.751H111.298V344.513H109.345V343.021H111.298V340.783H112.599V343.021H114.552Z" fill="#295271"/>
<path d="M98.9308 2.81486V4.307H96.9782V6.5452H95.6765V4.307H93.7239V2.81486H95.6765V0.57666H96.9782V2.81486H98.9308Z" fill="#295271"/>
<path d="M98.9308 20.7205V22.2126H96.9782V24.4508H95.6765V22.2126H93.7239V20.7205H95.6765V18.4823H96.9782V20.7205H98.9308Z" fill="#295271"/>
<path d="M98.9308 38.6261V40.1182H96.9782V42.3564H95.6765V40.1182H93.7239V38.6261H95.6765V36.3879H96.9782V38.6261H98.9308Z" fill="#295271"/>
<path d="M98.9308 56.5316V58.0237H96.9782V60.2619H95.6765V58.0237H93.7239V56.5316H95.6765V54.2934H96.9782V56.5316H98.9308Z" fill="#295271"/>
<path d="M98.9308 74.4372V75.9294H96.9782V78.1676H95.6765V75.9294H93.7239V74.4372H95.6765V72.199H96.9782V74.4372H98.9308Z" fill="#295271"/>
<path d="M98.9308 92.3428V93.8349H96.9782V96.0731H95.6765V93.8349H93.7239V92.3428H95.6765V90.1046H96.9782V92.3428H98.9308Z" fill="#295271"/>
<path d="M98.9308 110.248V111.741H96.9782V113.979H95.6765V111.741H93.7239V110.248H95.6765V108.01H96.9782V110.248H98.9308Z" fill="#295271"/>
<path d="M98.9308 128.154V129.646H96.9782V131.884H95.6765V129.646H93.7239V128.154H95.6765V125.916H96.9782V128.154H98.9308Z" fill="#295271"/>
<path d="M98.9308 146.06V147.552H96.9782V149.79H95.6765V147.552H93.7239V146.06H95.6765V143.821H96.9782V146.06H98.9308Z" fill="#295271"/>
<path d="M98.9308 163.965V165.457H96.9782V167.696H95.6765V165.457H93.7239V163.965H95.6765V161.727H96.9782V163.965H98.9308Z" fill="#295271"/>
<path d="M98.9308 181.871V183.363H96.9782V185.601H95.6765V183.363H93.7239V181.871H95.6765V179.633H96.9782V181.871H98.9308Z" fill="#295271"/>
<path d="M98.9308 199.776V201.269H96.9782V203.507H95.6765V201.269H93.7239V199.776H95.6765V197.538H96.9782V199.776H98.9308Z" fill="#295271"/>
<path d="M98.9308 217.682V219.174H96.9782V221.412H95.6765V219.174H93.7239V217.682H95.6765V215.444H96.9782V217.682H98.9308Z" fill="#295271"/>
<path d="M98.9308 235.588V237.08H96.9782V239.318H95.6765V237.08H93.7239V235.588H95.6765V233.349H96.9782V235.588H98.9308Z" fill="#295271"/>
<path d="M98.9308 253.493V254.985H96.9782V257.224H95.6765V254.985H93.7239V253.493H95.6765V251.255H96.9782V253.493H98.9308Z" fill="#295271"/>
<path d="M98.9308 271.399V272.891H96.9782V275.129H95.6765V272.891H93.7239V271.399H95.6765V269.161H96.9782V271.399H98.9308Z" fill="#295271"/>
<path d="M98.9308 289.304V290.796H96.9782V293.035H95.6765V290.796H93.7239V289.304H95.6765V287.066H96.9782V289.304H98.9308Z" fill="#295271"/>
<path d="M98.9308 307.21V308.702H96.9782V310.94H95.6765V308.702H93.7239V307.21H95.6765V304.972H96.9782V307.21H98.9308Z" fill="#295271"/>
<path d="M98.9308 325.116V326.608H96.9782V328.846H95.6765V326.608H93.7239V325.116H95.6765V322.877H96.9782V325.116H98.9308Z" fill="#295271"/>
<path d="M98.9308 343.021V344.513H96.9782V346.751H95.6765V344.513H93.7239V343.021H95.6765V340.783H96.9782V343.021H98.9308Z" fill="#295271"/>
<path d="M83.3104 2.81486V4.307H81.3578V6.5452H80.0561V4.307H78.1035V2.81486H80.0561V0.57666H81.3578V2.81486H83.3104Z" fill="#295271"/>
<path d="M83.3104 20.7205V22.2126H81.3578V24.4508H80.0561V22.2126H78.1035V20.7205H80.0561V18.4823H81.3578V20.7205H83.3104Z" fill="#295271"/>
<path d="M83.3104 38.6261V40.1182H81.3578V42.3564H80.0561V40.1182H78.1035V38.6261H80.0561V36.3879H81.3578V38.6261H83.3104Z" fill="#295271"/>
<path d="M83.3104 56.5316V58.0237H81.3578V60.2619H80.0561V58.0237H78.1035V56.5316H80.0561V54.2934H81.3578V56.5316H83.3104Z" fill="#295271"/>
<path d="M83.3104 74.4372V75.9294H81.3578V78.1676H80.0561V75.9294H78.1035V74.4372H80.0561V72.199H81.3578V74.4372H83.3104Z" fill="#295271"/>
<path d="M83.3104 92.3428V93.8349H81.3578V96.0731H80.0561V93.8349H78.1035V92.3428H80.0561V90.1046H81.3578V92.3428H83.3104Z" fill="#295271"/>
<path d="M83.3104 110.248V111.741H81.3578V113.979H80.0561V111.741H78.1035V110.248H80.0561V108.01H81.3578V110.248H83.3104Z" fill="#295271"/>
<path d="M83.3104 128.154V129.646H81.3578V131.884H80.0561V129.646H78.1035V128.154H80.0561V125.916H81.3578V128.154H83.3104Z" fill="#295271"/>
<path d="M83.3104 146.06V147.552H81.3578V149.79H80.0561V147.552H78.1035V146.06H80.0561V143.821H81.3578V146.06H83.3104Z" fill="#295271"/>
<path d="M83.3104 163.965V165.457H81.3578V167.696H80.0561V165.457H78.1035V163.965H80.0561V161.727H81.3578V163.965H83.3104Z" fill="#295271"/>
<path d="M83.3104 181.871V183.363H81.3578V185.601H80.0561V183.363H78.1035V181.871H80.0561V179.633H81.3578V181.871H83.3104Z" fill="#295271"/>
<path d="M83.3104 199.776V201.269H81.3578V203.507H80.0561V201.269H78.1035V199.776H80.0561V197.538H81.3578V199.776H83.3104Z" fill="#295271"/>
<path d="M83.3104 217.682V219.174H81.3578V221.412H80.0561V219.174H78.1035V217.682H80.0561V215.444H81.3578V217.682H83.3104Z" fill="#295271"/>
<path d="M83.3104 235.588V237.08H81.3578V239.318H80.0561V237.08H78.1035V235.588H80.0561V233.349H81.3578V235.588H83.3104Z" fill="#295271"/>
<path d="M83.3104 253.493V254.985H81.3578V257.224H80.0561V254.985H78.1035V253.493H80.0561V251.255H81.3578V253.493H83.3104Z" fill="#295271"/>
<path d="M83.3104 271.399V272.891H81.3578V275.129H80.0561V272.891H78.1035V271.399H80.0561V269.161H81.3578V271.399H83.3104Z" fill="#295271"/>
<path d="M83.3104 289.304V290.796H81.3578V293.035H80.0561V290.796H78.1035V289.304H80.0561V287.066H81.3578V289.304H83.3104Z" fill="#295271"/>
<path d="M83.3104 307.21V308.702H81.3578V310.94H80.0561V308.702H78.1035V307.21H80.0561V304.972H81.3578V307.21H83.3104Z" fill="#295271"/>
<path d="M83.3104 325.116V326.608H81.3578V328.846H80.0561V326.608H78.1035V325.116H80.0561V322.877H81.3578V325.116H83.3104Z" fill="#295271"/>
<path d="M83.3104 343.021V344.513H81.3578V346.751H80.0561V344.513H78.1035V343.021H80.0561V340.783H81.3578V343.021H83.3104Z" fill="#295271"/>
<path d="M67.6897 2.81486V4.307H65.7371V6.5452H64.4354V4.307H62.4828V2.81486H64.4354V0.57666H65.7371V2.81486H67.6897Z" fill="#295271"/>
<path d="M67.6897 20.7205V22.2126H65.7371V24.4508H64.4354V22.2126H62.4828V20.7205H64.4354V18.4823H65.7371V20.7205H67.6897Z" fill="#295271"/>
<path d="M67.6897 38.6261V40.1182H65.7371V42.3564H64.4354V40.1182H62.4828V38.6261H64.4354V36.3879H65.7371V38.6261H67.6897Z" fill="#295271"/>
<path d="M67.6897 56.5316V58.0237H65.7371V60.2619H64.4354V58.0237H62.4828V56.5316H64.4354V54.2934H65.7371V56.5316H67.6897Z" fill="#295271"/>
<path d="M67.6897 74.4372V75.9294H65.7371V78.1676H64.4354V75.9294H62.4828V74.4372H64.4354V72.199H65.7371V74.4372H67.6897Z" fill="#295271"/>
<path d="M67.6897 92.3428V93.8349H65.7371V96.0731H64.4354V93.8349H62.4828V92.3428H64.4354V90.1046H65.7371V92.3428H67.6897Z" fill="#295271"/>
<path d="M67.6897 110.248V111.741H65.7371V113.979H64.4354V111.741H62.4828V110.248H64.4354V108.01H65.7371V110.248H67.6897Z" fill="#295271"/>
<path d="M67.6897 128.154V129.646H65.7371V131.884H64.4354V129.646H62.4828V128.154H64.4354V125.916H65.7371V128.154H67.6897Z" fill="#295271"/>
<path d="M67.6897 146.06V147.552H65.7371V149.79H64.4354V147.552H62.4828V146.06H64.4354V143.821H65.7371V146.06H67.6897Z" fill="#295271"/>
<path d="M67.6897 163.965V165.457H65.7371V167.696H64.4354V165.457H62.4828V163.965H64.4354V161.727H65.7371V163.965H67.6897Z" fill="#295271"/>
<path d="M67.6897 181.871V183.363H65.7371V185.601H64.4354V183.363H62.4828V181.871H64.4354V179.633H65.7371V181.871H67.6897Z" fill="#295271"/>
<path d="M67.6897 199.776V201.269H65.7371V203.507H64.4354V201.269H62.4828V199.776H64.4354V197.538H65.7371V199.776H67.6897Z" fill="#295271"/>
<path d="M67.6897 217.682V219.174H65.7371V221.412H64.4354V219.174H62.4828V217.682H64.4354V215.444H65.7371V217.682H67.6897Z" fill="#295271"/>
<path d="M67.6897 235.588V237.08H65.7371V239.318H64.4354V237.08H62.4828V235.588H64.4354V233.349H65.7371V235.588H67.6897Z" fill="#295271"/>
<path d="M67.6897 253.493V254.985H65.7371V257.224H64.4354V254.985H62.4828V253.493H64.4354V251.255H65.7371V253.493H67.6897Z" fill="#295271"/>
<path d="M67.6897 271.399V272.891H65.7371V275.129H64.4354V272.891H62.4828V271.399H64.4354V269.161H65.7371V271.399H67.6897Z" fill="#295271"/>
<path d="M67.6897 289.304V290.796H65.7371V293.035H64.4354V290.796H62.4828V289.304H64.4354V287.066H65.7371V289.304H67.6897Z" fill="#295271"/>
<path d="M67.6897 307.21V308.702H65.7371V310.94H64.4354V308.702H62.4828V307.21H64.4354V304.972H65.7371V307.21H67.6897Z" fill="#295271"/>
<path d="M67.6897 325.116V326.608H65.7371V328.846H64.4354V326.608H62.4828V325.116H64.4354V322.877H65.7371V325.116H67.6897Z" fill="#295271"/>
<path d="M67.6897 343.021V344.513H65.7371V346.751H64.4354V344.513H62.4828V343.021H64.4354V340.783H65.7371V343.021H67.6897Z" fill="#295271"/>
<path d="M52.069 2.81486V4.307H50.1164V6.5452H48.8147V4.307H46.8621V2.81486H48.8147V0.57666H50.1164V2.81486H52.069Z" fill="#295271"/>
<path d="M52.069 20.7205V22.2126H50.1164V24.4508H48.8147V22.2126H46.8621V20.7205H48.8147V18.4823H50.1164V20.7205H52.069Z" fill="#295271"/>
<path d="M52.069 38.6261V40.1182H50.1164V42.3564H48.8147V40.1182H46.8621V38.6261H48.8147V36.3879H50.1164V38.6261H52.069Z" fill="#295271"/>
<path d="M52.069 56.5316V58.0237H50.1164V60.2619H48.8147V58.0237H46.8621V56.5316H48.8147V54.2934H50.1164V56.5316H52.069Z" fill="#295271"/>
<path d="M52.069 74.4372V75.9294H50.1164V78.1676H48.8147V75.9294H46.8621V74.4372H48.8147V72.199H50.1164V74.4372H52.069Z" fill="#295271"/>
<path d="M52.069 92.3428V93.8349H50.1164V96.0731H48.8147V93.8349H46.8621V92.3428H48.8147V90.1046H50.1164V92.3428H52.069Z" fill="#295271"/>
<path d="M52.069 110.248V111.741H50.1164V113.979H48.8147V111.741H46.8621V110.248H48.8147V108.01H50.1164V110.248H52.069Z" fill="#295271"/>
<path d="M52.069 128.154V129.646H50.1164V131.884H48.8147V129.646H46.8621V128.154H48.8147V125.916H50.1164V128.154H52.069Z" fill="#295271"/>
<path d="M52.069 146.06V147.552H50.1164V149.79H48.8147V147.552H46.8621V146.06H48.8147V143.821H50.1164V146.06H52.069Z" fill="#295271"/>
<path d="M52.069 163.965V165.457H50.1164V167.696H48.8147V165.457H46.8621V163.965H48.8147V161.727H50.1164V163.965H52.069Z" fill="#295271"/>
<path d="M52.069 181.871V183.363H50.1164V185.601H48.8147V183.363H46.8621V181.871H48.8147V179.633H50.1164V181.871H52.069Z" fill="#295271"/>
<path d="M52.069 199.776V201.269H50.1164V203.507H48.8147V201.269H46.8621V199.776H48.8147V197.538H50.1164V199.776H52.069Z" fill="#295271"/>
<path d="M52.069 217.682V219.174H50.1164V221.412H48.8147V219.174H46.8621V217.682H48.8147V215.444H50.1164V217.682H52.069Z" fill="#295271"/>
<path d="M52.069 235.588V237.08H50.1164V239.318H48.8147V237.08H46.8621V235.588H48.8147V233.349H50.1164V235.588H52.069Z" fill="#295271"/>
<path d="M52.069 253.493V254.985H50.1164V257.224H48.8147V254.985H46.8621V253.493H48.8147V251.255H50.1164V253.493H52.069Z" fill="#295271"/>
<path d="M52.069 271.399V272.891H50.1164V275.129H48.8147V272.891H46.8621V271.399H48.8147V269.161H50.1164V271.399H52.069Z" fill="#295271"/>
<path d="M52.069 289.304V290.796H50.1164V293.035H48.8147V290.796H46.8621V289.304H48.8147V287.066H50.1164V289.304H52.069Z" fill="#295271"/>
<path d="M52.069 307.21V308.702H50.1164V310.94H48.8147V308.702H46.8621V307.21H48.8147V304.972H50.1164V307.21H52.069Z" fill="#295271"/>
<path d="M52.069 325.116V326.608H50.1164V328.846H48.8147V326.608H46.8621V325.116H48.8147V322.877H50.1164V325.116H52.069Z" fill="#295271"/>
<path d="M52.069 343.021V344.513H50.1164V346.751H48.8147V344.513H46.8621V343.021H48.8147V340.783H50.1164V343.021H52.069Z" fill="#295271"/>
<path d="M36.4483 2.81486V4.307H34.4957V6.5452H33.194V4.307H31.2414V2.81486H33.194V0.57666H34.4957V2.81486H36.4483Z" fill="#295271"/>
<path d="M36.4484 20.7205V22.2126H34.4958V24.4508H33.194V22.2126H31.2415V20.7205H33.194V18.4823H34.4958V20.7205H36.4484Z" fill="#295271"/>
<path d="M36.4484 38.6261V40.1182H34.4958V42.3564H33.194V40.1182H31.2415V38.6261H33.194V36.3879H34.4958V38.6261H36.4484Z" fill="#295271"/>
<path d="M36.4484 56.5316V58.0237H34.4958V60.2619H33.194V58.0237H31.2415V56.5316H33.194V54.2934H34.4958V56.5316H36.4484Z" fill="#295271"/>
<path d="M36.4484 74.4372V75.9294H34.4958V78.1676H33.194V75.9294H31.2415V74.4372H33.194V72.199H34.4958V74.4372H36.4484Z" fill="#295271"/>
<path d="M36.4484 92.3428V93.8349H34.4958V96.0731H33.194V93.8349H31.2415V92.3428H33.194V90.1046H34.4958V92.3428H36.4484Z" fill="#295271"/>
<path d="M36.4484 110.248V111.741H34.4958V113.979H33.194V111.741H31.2415V110.248H33.194V108.01H34.4958V110.248H36.4484Z" fill="#295271"/>
<path d="M36.4484 128.154V129.646H34.4958V131.884H33.194V129.646H31.2415V128.154H33.194V125.916H34.4958V128.154H36.4484Z" fill="#295271"/>
<path d="M36.4484 146.06V147.552H34.4958V149.79H33.194V147.552H31.2415V146.06H33.194V143.821H34.4958V146.06H36.4484Z" fill="#295271"/>
<path d="M36.4484 163.965V165.457H34.4958V167.696H33.194V165.457H31.2415V163.965H33.194V161.727H34.4958V163.965H36.4484Z" fill="#295271"/>
<path d="M36.4484 181.871V183.363H34.4958V185.601H33.194V183.363H31.2415V181.871H33.194V179.633H34.4958V181.871H36.4484Z" fill="#295271"/>
<path d="M36.4484 199.776V201.269H34.4958V203.507H33.194V201.269H31.2415V199.776H33.194V197.538H34.4958V199.776H36.4484Z" fill="#295271"/>
<path d="M36.4484 217.682V219.174H34.4958V221.412H33.194V219.174H31.2415V217.682H33.194V215.444H34.4958V217.682H36.4484Z" fill="#295271"/>
<path d="M36.4484 235.588V237.08H34.4958V239.318H33.194V237.08H31.2415V235.588H33.194V233.349H34.4958V235.588H36.4484Z" fill="#295271"/>
<path d="M36.4484 253.493V254.985H34.4958V257.224H33.194V254.985H31.2415V253.493H33.194V251.255H34.4958V253.493H36.4484Z" fill="#295271"/>
<path d="M36.4484 271.399V272.891H34.4958V275.129H33.194V272.891H31.2415V271.399H33.194V269.161H34.4958V271.399H36.4484Z" fill="#295271"/>
<path d="M36.4484 289.304V290.796H34.4958V293.035H33.194V290.796H31.2415V289.304H33.194V287.066H34.4958V289.304H36.4484Z" fill="#295271"/>
<path d="M36.4484 307.21V308.702H34.4958V310.94H33.194V308.702H31.2415V307.21H33.194V304.972H34.4958V307.21H36.4484Z" fill="#295271"/>
<path d="M36.4484 325.116V326.608H34.4958V328.846H33.194V326.608H31.2415V325.116H33.194V322.877H34.4958V325.116H36.4484Z" fill="#295271"/>
<path d="M36.4484 343.021V344.513H34.4958V346.751H33.194V344.513H31.2415V343.021H33.194V340.783H34.4958V343.021H36.4484Z" fill="#295271"/>
<path d="M20.8276 2.81486V4.307H18.875V6.5452H17.5733V4.307H15.6207V2.81486H17.5733V0.57666H18.875V2.81486H20.8276Z" fill="#295271"/>
<path d="M20.8276 20.7205V22.2126H18.875V24.4508H17.5733V22.2126H15.6207V20.7205H17.5733V18.4823H18.875V20.7205H20.8276Z" fill="#295271"/>
<path d="M20.8276 38.6261V40.1182H18.875V42.3564H17.5733V40.1182H15.6207V38.6261H17.5733V36.3879H18.875V38.6261H20.8276Z" fill="#295271"/>
<path d="M20.8276 56.5316V58.0237H18.875V60.2619H17.5733V58.0237H15.6207V56.5316H17.5733V54.2934H18.875V56.5316H20.8276Z" fill="#295271"/>
<path d="M20.8276 74.4372V75.9294H18.875V78.1676H17.5733V75.9294H15.6207V74.4372H17.5733V72.199H18.875V74.4372H20.8276Z" fill="#295271"/>
<path d="M20.8276 92.3428V93.8349H18.875V96.0731H17.5733V93.8349H15.6207V92.3428H17.5733V90.1046H18.875V92.3428H20.8276Z" fill="#295271"/>
<path d="M20.8276 110.248V111.741H18.875V113.979H17.5733V111.741H15.6207V110.248H17.5733V108.01H18.875V110.248H20.8276Z" fill="#295271"/>
<path d="M20.8276 128.154V129.646H18.875V131.884H17.5733V129.646H15.6207V128.154H17.5733V125.916H18.875V128.154H20.8276Z" fill="#295271"/>
<path d="M20.8276 146.06V147.552H18.875V149.79H17.5733V147.552H15.6207V146.06H17.5733V143.821H18.875V146.06H20.8276Z" fill="#295271"/>
<path d="M20.8276 163.965V165.457H18.875V167.696H17.5733V165.457H15.6207V163.965H17.5733V161.727H18.875V163.965H20.8276Z" fill="#295271"/>
<path d="M20.8276 181.871V183.363H18.875V185.601H17.5733V183.363H15.6207V181.871H17.5733V179.633H18.875V181.871H20.8276Z" fill="#295271"/>
<path d="M20.8276 199.776V201.269H18.875V203.507H17.5733V201.269H15.6207V199.776H17.5733V197.538H18.875V199.776H20.8276Z" fill="#295271"/>
<path d="M20.8276 217.682V219.174H18.875V221.412H17.5733V219.174H15.6207V217.682H17.5733V215.444H18.875V217.682H20.8276Z" fill="#295271"/>
<path d="M20.8276 235.588V237.08H18.875V239.318H17.5733V237.08H15.6207V235.588H17.5733V233.349H18.875V235.588H20.8276Z" fill="#295271"/>
<path d="M20.8276 253.493V254.985H18.875V257.224H17.5733V254.985H15.6207V253.493H17.5733V251.255H18.875V253.493H20.8276Z" fill="#295271"/>
<path d="M20.8276 271.399V272.891H18.875V275.129H17.5733V272.891H15.6207V271.399H17.5733V269.161H18.875V271.399H20.8276Z" fill="#295271"/>
<path d="M20.8276 289.304V290.796H18.875V293.035H17.5733V290.796H15.6207V289.304H17.5733V287.066H18.875V289.304H20.8276Z" fill="#295271"/>
<path d="M20.8276 307.21V308.702H18.875V310.94H17.5733V308.702H15.6207V307.21H17.5733V304.972H18.875V307.21H20.8276Z" fill="#295271"/>
<path d="M20.8276 325.116V326.608H18.875V328.846H17.5733V326.608H15.6207V325.116H17.5733V322.877H18.875V325.116H20.8276Z" fill="#295271"/>
<path d="M20.8276 343.021V344.513H18.875V346.751H17.5733V344.513H15.6207V343.021H17.5733V340.783H18.875V343.021H20.8276Z" fill="#295271"/>
<path d="M5.20691 2.81486V4.307H3.25432V6.5452H1.95259V4.307H0V2.81486H1.95259V0.57666H3.25432V2.81486H5.20691Z" fill="#295271"/>
<path d="M5.20691 20.7205V22.2126H3.25432V24.4508H1.95259V22.2126H0V20.7205H1.95259V18.4823H3.25432V20.7205H5.20691Z" fill="#295271"/>
<path d="M5.20691 38.6261V40.1182H3.25432V42.3564H1.95259V40.1182H0V38.6261H1.95259V36.3879H3.25432V38.6261H5.20691Z" fill="#295271"/>
<path d="M5.20691 56.5316V58.0237H3.25432V60.2619H1.95259V58.0237H0V56.5316H1.95259V54.2934H3.25432V56.5316H5.20691Z" fill="#295271"/>
<path d="M5.20691 74.4372V75.9294H3.25432V78.1676H1.95259V75.9294H0V74.4372H1.95259V72.199H3.25432V74.4372H5.20691Z" fill="#295271"/>
<path d="M5.20691 92.3428V93.8349H3.25432V96.0731H1.95259V93.8349H0V92.3428H1.95259V90.1046H3.25432V92.3428H5.20691Z" fill="#295271"/>
<path d="M5.20691 110.248V111.741H3.25432V113.979H1.95259V111.741H0V110.248H1.95259V108.01H3.25432V110.248H5.20691Z" fill="#295271"/>
<path d="M5.20691 128.154V129.646H3.25432V131.884H1.95259V129.646H0V128.154H1.95259V125.916H3.25432V128.154H5.20691Z" fill="#295271"/>
<path d="M5.20691 146.06V147.552H3.25432V149.79H1.95259V147.552H0V146.06H1.95259V143.821H3.25432V146.06H5.20691Z" fill="#295271"/>
<path d="M5.20691 163.965V165.457H3.25432V167.696H1.95259V165.457H0V163.965H1.95259V161.727H3.25432V163.965H5.20691Z" fill="#295271"/>
<path d="M5.20691 181.871V183.363H3.25432V185.601H1.95259V183.363H0V181.871H1.95259V179.633H3.25432V181.871H5.20691Z" fill="#295271"/>
<path d="M5.20691 199.776V201.269H3.25432V203.507H1.95259V201.269H0V199.776H1.95259V197.538H3.25432V199.776H5.20691Z" fill="#295271"/>
<path d="M5.20691 217.682V219.174H3.25432V221.412H1.95259V219.174H0V217.682H1.95259V215.444H3.25432V217.682H5.20691Z" fill="#295271"/>
<path d="M5.20691 235.588V237.08H3.25432V239.318H1.95259V237.08H0V235.588H1.95259V233.349H3.25432V235.588H5.20691Z" fill="#295271"/>
<path d="M5.20691 253.493V254.985H3.25432V257.224H1.95259V254.985H0V253.493H1.95259V251.255H3.25432V253.493H5.20691Z" fill="#295271"/>
<path d="M5.20691 271.399V272.891H3.25432V275.129H1.95259V272.891H0V271.399H1.95259V269.161H3.25432V271.399H5.20691Z" fill="#295271"/>
<path d="M5.20691 289.304V290.796H3.25432V293.035H1.95259V290.796H0V289.304H1.95259V287.066H3.25432V289.304H5.20691Z" fill="#295271"/>
<path d="M5.20691 307.21V308.702H3.25432V310.94H1.95259V308.702H0V307.21H1.95259V304.972H3.25432V307.21H5.20691Z" fill="#295271"/>
<path d="M5.20691 325.116V326.608H3.25432V328.846H1.95259V326.608H0V325.116H1.95259V322.877H3.25432V325.116H5.20691Z" fill="#295271"/>
<path d="M5.20691 343.021V344.513H3.25432V346.751H1.95259V344.513H0V343.021H1.95259V340.783H3.25432V343.021H5.20691Z" fill="#295271"/>
</g>
</svg>
