<svg width="20" height="17" viewBox="0 0 20 17" fill="none" xmlns="http://www.w3.org/2000/svg">
<path d="M1.12422 10.2624L1.093 10.2556H14.4761L10.2689 14.472C10.0629 14.6779 9.94991 14.9567 9.94991 15.2494C9.94991 15.5421 10.0629 15.819 10.2689 16.0254L10.9236 16.6803C11.1294 16.8862 11.4037 17 11.6963 17C11.9889 17 12.2634 16.887 12.4693 16.6811L19.6811 9.46992C19.8878 9.26325 20.0008 8.98797 20 8.69512C20.0008 8.40065 19.8878 8.1252 19.6811 7.91886L12.4693 0.706992C12.2634 0.501301 11.9891 0.38813 11.6963 0.38813C11.4037 0.38813 11.1294 0.501463 10.9236 0.706992L10.2689 1.36195C10.0629 1.56748 9.94991 1.84195 9.94991 2.13463C9.94991 2.42715 10.0629 2.68715 10.2689 2.89285L14.5236 7.13284H1.10926C0.5065 7.13284 -4.21715e-06 7.65236 -4.21715e-06 8.2548V9.18114C-4.21715e-06 9.78358 0.521459 10.2624 1.12422 10.2624Z" fill="#636879"/>
</svg>
