<svg width="84" height="65" viewBox="0 0 84 65" fill="none" xmlns="http://www.w3.org/2000/svg">
<path d="M69.4107 44.3177L69.4111 44.3179C71.3079 45.4063 72.5005 47.5009 72.5004 49.7926V62.7127C72.5004 63.7005 71.7016 64.4993 70.7138 64.4993H59.781V60.9262H68.4272H68.9272V60.4262V49.7927C68.9272 48.8101 68.4522 47.8883 67.634 47.4167L67.6335 47.4164C64.5799 45.6618 61.2923 44.3265 57.8786 43.3635C56.8864 41.7965 55.5533 40.4387 53.8965 39.4851L53.8963 39.485C53.3506 39.1713 52.7921 38.8812 52.2283 38.6058C58.331 39.4173 64.1829 41.3121 69.4107 44.3177Z" fill="#8D448B" stroke="white"/>
<path d="M51.288 44.3179C53.1876 45.4107 54.3778 47.5037 54.3778 49.7908V62.7131C54.3778 63.7009 53.579 64.4997 52.5912 64.4997H2.2866C1.29882 64.4997 0.5 63.7009 0.5 62.7131V49.793C0.5 47.5036 1.69026 45.4108 3.58969 44.318L51.288 44.3179ZM51.288 44.3179C37.0486 36.1312 17.8295 36.1312 3.58981 44.3179H51.288ZM50.3048 60.9265H50.8048V60.4265V49.7908C50.8048 48.8101 50.3296 47.8882 49.5089 47.4168C36.3408 39.8476 18.5372 39.8476 5.36914 47.4168C4.54845 47.8883 4.07333 48.8103 4.07333 49.793V60.4265V60.9265H4.57333H50.3048Z" fill="#8D448B" stroke="white"/>
<path d="M45.5622 32.4877C44.3426 32.4877 43.139 32.3003 41.954 31.992C42.9513 31.0341 43.8732 29.993 44.6671 28.8396C44.9435 28.8747 45.2599 28.9146 45.5622 28.9146C52.142 28.9146 57.4951 23.5616 57.4951 16.9818C57.4951 10.402 52.1422 5.04891 45.5622 5.04891C45.2596 5.04891 44.9435 5.08859 44.6669 5.12358C43.8729 3.97021 42.951 2.92927 41.9537 1.97125C43.1387 1.66296 44.3424 1.47559 45.5622 1.47559C54.1109 1.47559 61.0683 8.43294 61.0683 16.9816C61.0683 25.5303 54.1108 32.4877 45.5622 32.4877Z" fill="#8D448B" stroke="white"/>
<path d="M81.2007 42.1395L81.2008 42.1396C82.7676 43.0479 83.7501 44.7942 83.75 46.7017V57.1507C83.75 58.0373 83.0409 58.75 82.1698 58.75H73.2688V55.5515H80.3396H80.5896V55.3015V46.7017C80.5896 45.9559 80.233 45.2653 79.6306 44.9145L79.6304 44.9143C77.1815 43.4926 74.5426 42.4122 71.8008 41.6352C71.0152 40.3657 69.9549 39.2675 68.635 38.4999L68.6349 38.4998C67.9276 38.0891 67.1934 37.7287 66.4549 37.3863C71.6948 37.9679 76.7306 39.5427 81.2007 42.1395Z" fill="#8D448B" stroke="white" stroke-width="0.5"/>
<path d="M58.5008 7.73083C59.5769 7.4348 60.6762 7.25 61.7946 7.25C68.9409 7.25 74.75 12.9743 74.75 20C74.75 27.0257 68.9408 32.75 61.7946 32.75C60.6764 32.75 59.5772 32.5652 58.5011 32.2692C59.4196 31.4231 60.264 30.4986 60.9769 29.4637C61.0119 29.4679 61.0475 29.4724 61.0836 29.4769C61.3096 29.5051 61.5549 29.5358 61.7946 29.5358C67.1296 29.5358 71.477 25.2616 71.477 20.0001C71.477 14.7386 67.1297 10.4644 61.7946 10.4644C61.5542 10.4644 61.3086 10.495 61.0821 10.5232C61.0465 10.5277 61.0113 10.532 60.9767 10.5362C60.2637 9.50125 59.4193 8.57699 58.5008 7.73083Z" fill="#8D448B" stroke="white" stroke-width="0.5"/>
<path d="M42.945 16.9817C42.945 25.5304 35.9875 32.4877 27.439 32.4877C18.8904 32.4877 11.9329 25.5304 11.9329 16.9817C11.9329 8.43295 18.8903 1.47559 27.439 1.47559C35.9876 1.47559 42.945 8.43295 42.945 16.9817ZM39.3718 16.9817C39.3718 10.4019 34.0189 5.04879 27.439 5.04879C20.8592 5.04879 15.5061 10.4019 15.5061 16.9817C15.5061 23.5615 20.8592 28.9145 27.439 28.9145C34.0187 28.9145 39.3718 23.5615 39.3718 16.9817Z" fill="#8D448B" stroke="white"/>
</svg>
